<svg width="16" height="16" viewBox="0 0 16 16" fill="none" xmlns="http://www.w3.org/2000/svg">
<path d="M7.99965 7.9072L14.5042 4.35927C14.2973 3.67863 13.8777 3.08223 13.307 2.6576C12.7362 2.23298 12.0444 2.0025 11.333 2H4.66632C3.95494 2.0025 3.2631 2.23298 2.69234 2.6576C2.12159 3.08223 1.70198 3.67863 1.49512 4.35927L7.99965 7.9072Z" fill="#E2E8F0"/>
<path d="M8.31901 9.25126C8.22104 9.30466 8.11125 9.33265 7.99967 9.33265C7.8881 9.33265 7.77831 9.30466 7.68034 9.25126L1.33301 5.78906V10.666C1.33405 11.5497 1.68557 12.397 2.31047 13.0219C2.93536 13.6468 3.78261 13.9983 4.66634 13.9993H11.333C12.2167 13.9983 13.064 13.6468 13.6889 13.0219C14.3138 12.397 14.6653 11.5497 14.6663 10.666V5.78906L8.31901 9.25126Z" fill="#E2E8F0"/>
</svg>
