<svg width="22" height="22" viewBox="0 0 22 22" fill="none" xmlns="http://www.w3.org/2000/svg">
<path d="M21.2859 21.2843V13.7501C21.2859 10.0473 20.4887 7.21875 16.1688 7.21875C14.0859 7.21875 12.6974 8.35017 12.1317 9.43016H12.0802V7.55303H7.9917V21.2843H12.2602V14.4701C12.2602 12.6701 12.5945 10.9473 14.8059 10.9473C16.9916 10.9473 17.0173 12.9787 17.0173 14.573V21.2586H21.2859V21.2843Z" fill="white"/>
<path d="M1.04883 7.55469H5.31736V21.286H1.04883V7.55469Z" fill="white"/>
<path d="M3.1829 0.714844C1.82006 0.714844 0.714355 1.82055 0.714355 3.18339C0.714355 4.54623 1.82006 5.67765 3.1829 5.67765C4.54575 5.67765 5.65145 4.54623 5.65145 3.18339C5.65145 1.82055 4.54575 0.714844 3.1829 0.714844Z" fill="white"/>
</svg>
