<svg width="22" height="18" viewBox="0 0 22 18" fill="none" xmlns="http://www.w3.org/2000/svg">
<path d="M21.2858 2.40969C20.5144 2.74397 19.7172 2.9754 18.8686 3.07826C19.7429 2.56397 20.4115 1.74112 20.7201 0.738259C19.8972 1.22683 18.9972 1.56112 18.0458 1.76683C17.2744 0.943973 16.1686 0.429688 14.9601 0.429688C12.6201 0.429688 10.7429 2.33255 10.7429 4.64683C10.7429 4.98112 10.7686 5.28969 10.8458 5.59826C7.34864 5.44397 4.26293 3.74683 2.18007 1.20112C0.688641 3.8754 2.36007 6.08683 3.46578 6.83255C2.79721 6.83255 2.12864 6.62683 1.56293 6.31826C1.56293 8.40112 3.02864 10.124 4.9315 10.5097C4.52007 10.6383 3.59436 10.7154 3.02864 10.5868C3.56864 12.2583 5.13721 13.4925 6.96293 13.5183C5.52293 14.6497 3.41436 15.5497 0.714355 15.2668C2.5915 16.4754 4.80293 17.1697 7.19436 17.1697C14.9601 17.1697 19.1772 10.7411 19.1772 5.18683C19.1772 5.00683 19.1772 4.82683 19.1515 4.64683C20.0258 4.00397 20.7458 3.25826 21.2858 2.40969Z" fill="white"/>
</svg>
