<svg width="24" height="22" viewBox="0 0 24 22" fill="none" xmlns="http://www.w3.org/2000/svg">
<path d="M12 21.3779C11.8786 21.3779 11.7572 21.3466 11.6485 21.2837C11.5304 21.2156 8.72392 19.5861 5.8772 17.1309C4.18999 15.6758 2.84318 14.2325 1.87427 12.8412C0.620464 11.041 -0.0100507 9.30931 0.000121129 7.69433C0.0120274 5.81511 0.685104 4.04784 1.89551 2.718C3.12635 1.36575 4.76894 0.621094 6.5208 0.621094C8.76596 0.621094 10.8187 1.87875 12.0001 3.87102C13.1814 1.87879 15.2341 0.621094 17.4793 0.621094C19.1344 0.621094 20.7134 1.293 21.9258 2.51306C23.2563 3.85195 24.0123 5.74372 23.9999 7.70324C23.9897 9.3154 23.3473 11.0444 22.0908 12.8422C21.1189 14.2328 19.7739 15.6754 18.0933 17.1301C15.257 19.5851 12.4707 21.2145 12.3535 21.2827C12.2442 21.3461 12.1221 21.3779 12 21.3779Z" fill="#DD4124"/>
</svg>
