<svg width="24" height="24" viewBox="0 0 24 24" fill="none" xmlns="http://www.w3.org/2000/svg">
<g clip-path="url(#clip0_437_7277)">
<path d="M12 0C9.62663 0 7.30655 0.703788 5.33316 2.02236C3.35977 3.34094 1.8217 5.21509 0.913451 7.4078C0.00519943 9.60051 -0.232441 12.0133 0.230582 14.3411C0.693605 16.6689 1.83649 18.8071 3.51472 20.4853C5.19295 22.1635 7.33115 23.3064 9.65892 23.7694C11.9867 24.2324 14.3995 23.9948 16.5922 23.0866C18.7849 22.1783 20.6591 20.6402 21.9776 18.6668C23.2962 16.6935 24 14.3734 24 12C23.9964 8.8185 22.731 5.76833 20.4813 3.51867C18.2317 1.269 15.1815 0.00357316 12 0V0ZM7.00001 7C7.79538 7.00089 8.55792 7.31725 9.12034 7.87967C9.68275 8.44208 9.99911 9.20463 10 10H8.00001C8.00001 9.73479 7.89465 9.48043 7.70711 9.29289C7.51958 9.10536 7.26522 9 7.00001 9C6.73479 9 6.48043 9.10536 6.2929 9.29289C6.10536 9.48043 6.00001 9.73479 6.00001 10H4.00001C4.0009 9.20463 4.31726 8.44208 4.87967 7.87967C5.44209 7.31725 6.20463 7.00089 7.00001 7ZM12 20C10.4093 19.9982 8.88417 19.3655 7.75934 18.2407C6.63451 17.1158 6.00179 15.5908 6.00001 14C6.00001 13.7348 6.10536 13.4804 6.2929 13.2929C6.48043 13.1054 6.73479 13 7.00001 13H17C17.2652 13 17.5196 13.1054 17.7071 13.2929C17.8946 13.4804 18 13.7348 18 14C17.9982 15.5908 17.3655 17.1158 16.2407 18.2407C15.1158 19.3655 13.5908 19.9982 12 20ZM18 10C18 9.73479 17.8946 9.48043 17.7071 9.29289C17.5196 9.10536 17.2652 9 17 9C16.7348 9 16.4804 9.10536 16.2929 9.29289C16.1054 9.48043 16 9.73479 16 10H14C14 9.20435 14.3161 8.44129 14.8787 7.87868C15.4413 7.31607 16.2044 7 17 7C17.7957 7 18.5587 7.31607 19.1213 7.87868C19.6839 8.44129 20 9.20435 20 10H18Z" fill="#DD4124"/>
</g>
<defs>
<clipPath id="clip0_437_7277">
<rect width="24" height="24" fill="white"/>
</clipPath>
</defs>
</svg>
