<svg width="24" height="24" viewBox="0 0 24 24" fill="none" xmlns="http://www.w3.org/2000/svg">
<g clip-path="url(#clip0_437_7272)">
<path d="M23.1783 13.2756C23.7283 12.6456 24.0034 11.9007 24.0034 11.0406C24.0034 10.2606 23.718 9.58574 23.1492 9.01544C22.5792 8.4452 21.9043 8.16023 21.1243 8.16023H16.9695C17.0095 8.02027 17.0495 7.90028 17.0894 7.8003C17.129 7.70032 17.1846 7.5902 17.2543 7.4702C17.3241 7.35015 17.3742 7.2601 17.4041 7.20021C17.5841 6.8604 17.7218 6.58021 17.8169 6.36039C17.9119 6.14016 18.0064 5.84027 18.1017 5.46026C18.1968 5.08047 18.2441 4.7003 18.2441 4.3203C18.2441 4.08041 18.2412 3.88523 18.2365 3.73534C18.2318 3.58535 18.2063 3.36028 18.1617 3.06023C18.1164 2.76035 18.0563 2.51032 17.9815 2.31041C17.9064 2.11045 17.7863 1.88528 17.6216 1.63546C17.4565 1.38517 17.2566 1.18295 17.0214 1.02786C16.7862 0.872874 16.4863 0.742895 16.1214 0.637977C15.756 0.532954 15.3438 0.480469 14.8835 0.480469C14.6235 0.480469 14.3987 0.57551 14.2085 0.765539C14.0086 0.965498 13.8383 1.21547 13.6984 1.51536C13.5584 1.8154 13.4608 2.07541 13.4057 2.29549C13.3507 2.51547 13.2882 2.82055 13.2184 3.21044C13.1281 3.63063 13.0609 3.93294 13.0156 4.11792C12.9707 4.30291 12.883 4.54537 12.7531 4.84531C12.623 5.14546 12.4681 5.38529 12.2881 5.56539C11.9582 5.89533 11.4532 6.49536 10.7731 7.36528C10.2829 8.00519 9.778 8.61017 9.25804 9.1802C8.73796 9.75034 8.35801 10.0453 8.11807 10.0653C7.86825 10.0853 7.65322 10.1878 7.47317 10.3729C7.29312 10.5578 7.20312 10.7754 7.20312 11.0253V20.6403C7.20312 20.9003 7.29806 21.1227 7.48809 21.3077C7.67801 21.4929 7.90303 21.5903 8.16304 21.6003C8.513 21.6104 9.30301 21.8301 10.5331 22.2605C11.303 22.5201 11.9054 22.7179 12.3404 22.8527C12.7753 22.9876 13.3832 23.1327 14.1626 23.2879C14.9427 23.4428 15.6626 23.5205 16.3224 23.5205H16.5775H17.7176H18.2574C19.5878 23.5005 20.5723 23.1104 21.2125 22.3506C21.7923 21.6605 22.0372 20.7555 21.9475 19.6355C22.3375 19.2655 22.6077 18.7957 22.7575 18.2256C22.9272 17.6159 22.9272 17.0309 22.7575 16.471C23.2174 15.861 23.4324 15.176 23.4022 14.416C23.4035 14.0956 23.3287 13.7157 23.1783 13.2756Z" fill="#DD4124"/>
<path d="M5.28005 10.082H0.960181C0.700014 10.082 0.474994 10.1771 0.285018 10.3671C0.0950409 10.557 0 10.782 0 11.0421V20.6424C0 20.902 0.0950409 21.1272 0.28507 21.3173C0.475204 21.5071 0.700224 21.6022 0.960233 21.6022H5.28005C5.54001 21.6022 5.76492 21.5071 5.955 21.3173C6.14498 21.1272 6.23997 20.9021 6.23997 20.6424V11.0421C6.23997 10.782 6.14493 10.5571 5.955 10.3671C5.76497 10.177 5.54006 10.082 5.28005 10.082ZM3.55497 19.4045C3.36499 19.5895 3.14003 19.682 2.88002 19.682C2.60997 19.682 2.38243 19.5895 2.19755 19.4045C2.01257 19.2196 1.9201 18.9921 1.9201 18.7221C1.9201 18.4621 2.01251 18.2371 2.19755 18.0471C2.38248 17.8571 2.60997 17.762 2.88002 17.762C3.14003 17.762 3.36499 17.8571 3.55497 18.0471C3.745 18.237 3.84004 18.4621 3.84004 18.7221C3.84004 18.9921 3.74521 19.2195 3.55497 19.4045Z" fill="#DD4124"/>
</g>
<defs>
<clipPath id="clip0_437_7272">
<rect width="24" height="24" fill="white"/>
</clipPath>
</defs>
</svg>
