<svg width="132" height="24" viewBox="0 0 132 24" fill="none" xmlns="http://www.w3.org/2000/svg">
<path opacity="0.4" fill-rule="evenodd" clip-rule="evenodd" d="M2.97581 0.168601C2.38927 0.259171 1.49294 0.451676 0.983968 0.596377L0.0585835 0.859535L0.0260111 2.54369C-0.00433516 4.11057 0.0078502 4.22363 0.201761 4.16809C0.316351 4.13517 0.878752 3.97008 1.45146 3.80113C3.02209 3.33797 5.05669 3.1034 6.7371 3.19198C8.09143 3.26333 9.64752 3.49649 9.8023 3.65127C9.84319 3.69228 9.99492 4.39235 10.1393 5.2069C10.2855 6.03175 10.4691 6.7296 10.5536 6.78174C10.8884 6.98865 12.8073 7.18397 14.4115 7.17448C16.8598 7.15995 19.0536 6.6948 21.1193 5.75219L22.0274 5.33789V3.65525C22.0274 2.58048 21.9838 1.97262 21.9068 1.97262C21.8406 1.97262 21.4739 2.13033 21.092 2.32318C18.0179 3.87494 13.7568 4.43313 10.4307 3.71981L9.86346 3.59819L9.7388 2.87328C9.67014 2.47456 9.5491 1.76629 9.4699 1.29926C9.373 0.72819 9.26638 0.431289 9.14453 0.392624C9.04482 0.361107 8.43602 0.255773 7.7916 0.158642C6.36334 -0.0564766 4.40641 -0.052493 2.97581 0.168601ZM31.6637 10.7894L31.6937 19.3719L33.3047 19.4045L34.9157 19.4371V16.0945V12.752H36.0957H37.2756L38.9035 16.0912L40.5313 19.4305H42.293C43.262 19.4305 44.0548 19.4038 44.0548 19.3711C44.0548 19.3385 43.2902 17.7835 42.3558 15.9155C41.4214 14.0475 40.6596 12.4793 40.6628 12.4306C40.6661 12.3817 40.9955 12.1868 41.3951 11.9972C43.829 10.8424 44.7523 7.69318 43.4605 4.95171C43.0864 4.1579 42.1617 3.20182 41.3842 2.80521C40.3162 2.26038 39.7995 2.20695 35.5933 2.20695H31.6335L31.6637 10.7894ZM126.775 4.93179C126.775 5.83128 126.728 6.11599 126.511 6.54658C126.201 7.16218 125.663 7.479 124.929 7.47923L124.431 7.47947V8.88547V10.2915H125.427H126.423L126.427 12.957C126.431 15.9407 126.541 17.1026 126.884 17.7745C127.203 18.4007 127.782 18.9539 128.414 19.2358C129.056 19.5228 130.603 19.631 131.315 19.4388L131.813 19.3043V17.9841V16.6639L130.983 16.6705C130.214 16.6766 130.131 16.6526 129.869 16.3483C129.587 16.0202 129.587 16.0144 129.587 13.1555V10.2915H130.7H131.813V8.88547V7.47947H130.703H129.593L129.56 5.69267L129.528 3.90587L128.151 3.87283L126.775 3.83991V4.93179ZM39.1662 5.26032C40.1912 5.54492 40.8484 6.58267 40.7505 7.76231C40.6798 8.61552 40.2625 9.24002 39.5223 9.60066C39.0115 9.8494 38.7661 9.87986 36.9369 9.92111L34.9157 9.96657V7.55129V5.13613L36.8197 5.13683C37.8669 5.13718 38.9229 5.19272 39.1662 5.26032ZM4.55135 6.43293C3.51759 6.56111 1.73266 6.99627 0.707102 7.37027L0 7.62803V9.36339V11.0988L0.62778 10.8212C3.45209 9.57207 7.22182 9.18858 10.3826 9.82866L10.9818 9.94993L11.2456 11.4743C11.3905 12.3126 11.49 13.0157 11.4665 13.0367C11.443 13.0577 11.002 12.9954 10.4864 12.8983C9.16245 12.6489 6.22543 12.6582 4.81169 12.9164C3.54852 13.1469 1.86178 13.6644 0.756898 14.1601L0 14.4996V16.2035C0 17.1406 0.0189811 17.9073 0.0421802 17.9073C0.0653792 17.9073 0.532758 17.7002 1.08063 17.4471C3.38366 16.3831 5.62999 15.8993 8.26027 15.9008C9.83312 15.9018 11.8473 16.1242 12.0416 16.3184C12.078 16.3549 12.2282 17.0518 12.3756 17.8671C12.5229 18.6825 12.6853 19.3905 12.7366 19.4406C12.9084 19.6083 15.3077 19.8992 16.5205 19.8992C17.9206 19.8992 19.7624 19.6477 21.0559 19.2799L21.9688 19.0204L22.0013 17.3508C22.0211 16.3368 21.9895 15.6811 21.9211 15.6811C21.859 15.6811 21.6598 15.7376 21.4785 15.8068C19.8847 16.4136 17.077 16.8034 15.1145 16.6902C13.9045 16.6204 12.253 16.3793 12.1386 16.2557C12.0913 16.2045 11.5995 13.4795 11.5995 13.268C11.5995 13.1794 11.8629 13.1944 12.449 13.3164C13.6956 13.5757 17.0867 13.5644 18.439 13.2965C19.5651 13.0734 21.1888 12.5908 21.7052 12.3256L22.0274 12.1602V10.5228C22.0274 9.53856 21.9819 8.88547 21.9133 8.88547C21.8505 8.88547 21.3936 9.04657 20.8979 9.24353C18.9357 10.0229 16.0002 10.5034 14.06 10.3628C12.7694 10.2692 11.3272 10.0614 11.132 9.94067C11.0456 9.88725 10.8606 9.19397 10.7093 8.35634C10.5613 7.53711 10.4117 6.83844 10.3769 6.80365C10.0564 6.48319 6.15056 6.23457 4.55135 6.43293ZM49.0929 7.28731C48.181 7.53559 47.4258 7.98293 46.6912 8.70972C45.4312 9.95649 44.8749 11.3986 44.8749 13.418C44.8749 15.3711 45.369 16.7219 46.5422 17.9761C48.6077 20.1841 52.0991 20.3512 54.3069 18.3475C54.9144 17.7962 55.5829 16.7972 55.7187 16.2377L55.7969 15.9155H54.3945H52.9923L52.5824 16.302C51.8283 17.0132 50.5376 17.1767 49.4982 16.6926C48.6209 16.2841 47.9213 15.3432 47.9213 14.5718V14.2751H51.9796H56.038L55.9713 12.8984C55.9348 12.1412 55.8238 11.2689 55.7249 10.9597C54.9272 8.46742 53.0379 7.10933 50.4053 7.13581C49.9734 7.14027 49.3829 7.20834 49.0929 7.28731ZM82.3405 7.3555C79.5064 8.26144 77.8296 11.4163 78.4263 14.7198C78.9417 17.5735 80.9254 19.4856 83.6318 19.737C86.0537 19.9622 88.533 18.3823 89.2153 16.1791C89.297 15.9155 89.2969 15.9155 87.845 15.9155C86.4268 15.9155 86.3862 15.9226 86.1088 16.2239C85.4972 16.888 84.3357 17.1408 83.2641 16.8433C82.4268 16.6108 81.5811 15.6319 81.3758 14.6575L81.2959 14.2782L85.3764 14.2474L89.4569 14.2166L89.4484 13.1035C89.4336 11.1999 88.9122 9.71583 87.889 8.66531C86.5765 7.31778 84.2076 6.75865 82.3405 7.3555ZM94.0127 7.23916C93.3568 7.39569 92.519 7.86776 92.0316 8.35517C90.6595 9.72708 90.5468 11.9694 91.7823 13.3098C92.4004 13.9802 93.0697 14.3103 94.5672 14.6831C95.2364 14.8497 95.931 15.0443 96.1108 15.1155C97.1308 15.519 96.9474 16.9068 95.8346 17.2064C94.9374 17.448 93.8008 16.9952 93.5037 16.2776L93.3536 15.9155H91.9525H90.5514L90.6271 16.2963C90.7646 16.9883 91.3849 18.1096 91.8753 18.5526C92.9204 19.4968 94.6553 19.9529 96.1964 19.6886C97.2898 19.5011 98.0135 19.1451 98.6749 18.4695C99.9791 17.1371 100.078 14.8926 98.8924 13.5454C98.2732 12.842 97.4985 12.455 96.0056 12.1036C95.3037 11.9383 94.5824 11.7457 94.4026 11.6756C93.6799 11.3935 93.5265 10.644 94.0676 10.0384C94.3584 9.71302 94.4912 9.65877 95.0928 9.61999C95.8905 9.56867 96.4222 9.82116 96.7574 10.4104L96.9556 10.7586L98.2887 10.7594L99.6219 10.7601L99.5451 10.2807C99.3236 8.89484 98.1597 7.70079 96.635 7.29493C95.9837 7.12152 94.6262 7.0927 94.0127 7.23916ZM104.953 7.25497C104.182 7.4367 103.088 8.06928 102.468 8.69167C101.163 10.0008 100.57 11.6964 100.68 13.8047C100.78 15.7461 101.364 17.1101 102.572 18.2284C104.746 20.2415 108.073 20.2559 110.182 18.2614C110.789 17.6872 111.543 16.4922 111.543 16.1041C111.543 15.9416 111.355 15.9155 110.185 15.9155H108.827L108.347 16.326C108.083 16.5518 107.679 16.7888 107.45 16.8526C106.447 17.1312 105.224 16.871 104.527 16.2304C104.195 15.9258 103.696 14.9112 103.694 14.5388L103.693 14.2751H107.735H111.777V13.1808C111.777 11.9841 111.497 10.6513 111.068 9.81156C110.718 9.1239 109.784 8.16548 109.104 7.79558C107.998 7.19369 106.204 6.96006 104.953 7.25497ZM118.33 7.28098C117.621 7.48181 116.795 7.97508 116.418 8.42348L116.112 8.78623V8.13291V7.47947H114.589H113.066V13.455V19.4305H114.582H116.098L116.134 15.5933C116.17 11.897 116.18 11.7384 116.429 11.2729C116.786 10.6069 117.303 10.2035 117.918 10.1112C118.915 9.96165 119.689 10.329 120.08 11.1372C120.32 11.6335 120.33 11.8109 120.33 15.5458V19.4373L121.883 19.4046L123.435 19.3719V15.0953C123.435 10.9392 123.428 10.7954 123.164 9.98988C122.78 8.81962 122.199 8.09658 121.263 7.62546C120.367 7.17413 119.194 7.03646 118.33 7.28098ZM62.7429 7.4019C62.0676 7.62346 61.7777 7.79781 61.2028 8.32775L60.6925 8.79818V8.13876V7.47947H59.2279H57.7633V15.7397V24H59.2865H60.8096V21.1661V18.3322L61.1318 18.6257C61.8914 19.3175 62.8831 19.6648 64.0992 19.6648C66.3297 19.6648 68.2645 18.2202 69.0006 16.0052C69.6537 14.0396 69.5192 11.6399 68.6605 9.9429C68.1394 8.91277 67.4717 8.24503 66.466 7.74801C65.6378 7.33875 65.4943 7.30618 64.3939 7.27817C63.654 7.25931 63.0362 7.30571 62.7429 7.4019ZM76.0102 7.4872C75.1216 7.70173 74.3266 8.26425 73.9515 8.94405C73.8475 9.13281 73.8216 9.01306 73.8187 8.32893L73.8152 7.47947H72.2909H70.7667L70.7971 13.4257L70.8274 19.3719L72.3733 19.4046L73.9193 19.4372L73.955 16.0068L73.9909 12.5762L74.3149 11.9617C74.8499 10.9464 75.9201 10.4617 77.2865 10.6157L77.8056 10.6743L77.7729 9.04751L77.7402 7.42088L77.0958 7.40085C76.7414 7.38983 76.2529 7.42873 76.0102 7.4872ZM51.2605 9.83499C52.1661 10.0823 52.949 10.9825 52.9569 11.7853L52.9594 12.049H50.4404C48.4479 12.049 47.9213 12.017 47.9213 11.8962C47.9213 11.5671 48.5462 10.514 48.8845 10.2731C49.6299 9.74219 50.4008 9.60007 51.2605 9.83499ZM85.3707 10.1181C85.7183 10.3218 85.9491 10.5827 86.1649 11.0158C86.708 12.1053 86.8289 12.049 83.9501 12.049C81.1136 12.049 81.2295 12.0941 81.6555 11.1558C81.9106 10.5942 82.5273 10.0596 83.1566 9.85467C83.7775 9.65244 84.7796 9.77172 85.3707 10.1181ZM107.162 9.87857C107.994 10.1258 108.731 11.0044 108.731 11.7502V12.049H106.21H103.688L103.765 11.7268C103.972 10.8668 104.594 10.1675 105.413 9.87541C105.999 9.6665 106.45 9.66732 107.162 9.87857ZM64.2718 10.188C64.9767 10.3655 65.7485 11.0677 66.0867 11.8395C66.4677 12.709 66.473 14.2003 66.098 15.0367C65.5889 16.172 64.7639 16.7457 63.633 16.7512C62.4892 16.7566 61.6726 16.2623 61.1601 15.254C60.783 14.5122 60.6909 12.9353 60.9748 12.0806C61.3007 11.0997 62.0374 10.3955 62.9772 10.1667C63.497 10.0401 63.6979 10.0434 64.2718 10.188Z" fill="white"/>
</svg>
