<svg width="18" height="22" viewBox="0 0 18 22" fill="none" xmlns="http://www.w3.org/2000/svg">
  <path
    d="M5.44444 11H12.1111H5.44444ZM5.44444 15.4444H12.1111H5.44444ZM14.3333 21H3.22222C2.63285 21 2.06762 20.7659 1.65087 20.3491C1.23413 19.9324 1 19.3671 1 18.7778V3.22222C1 2.63285 1.23413 2.06762 1.65087 1.65087C2.06762 1.23413 2.63285 1 3.22222 1H9.42889C9.72355 1.00006 10.0061 1.11717 10.2144 1.32556L16.23 7.34111C16.4384 7.54944 16.5555 7.83201 16.5556 8.12667V18.7778C16.5556 19.3671 16.3214 19.9324 15.9047 20.3491C15.4879 20.7659 14.9227 21 14.3333 21Z"
    stroke="#ffffff" stroke-width="1.2" stroke-linecap="round" stroke-linejoin="round" />
</svg>