<svg width="22" height="22" viewBox="0 0 22 22" fill="none" xmlns="http://www.w3.org/2000/svg">
  <path
    d="M8.40333 16.5556H13.5956H8.40333ZM11 1V2.11111V1ZM18.0711 3.92889L17.2856 4.71444L18.0711 3.92889ZM21 11H19.8889H21ZM2.11111 11H1H2.11111ZM4.71444 4.71444L3.92889 3.92889L4.71444 4.71444ZM7.07111 14.9289C6.2943 14.1519 5.76533 13.162 5.55109 12.0843C5.33684 11.0067 5.44695 9.88974 5.86748 8.87468C6.28801 7.85962 7.00008 6.99205 7.91365 6.38166C8.82723 5.77127 9.90128 5.44548 11 5.44548C12.0987 5.44548 13.1728 5.77127 14.0863 6.38166C14.9999 6.99205 15.712 7.85962 16.1325 8.87468C16.5531 9.88974 16.6632 11.0067 16.4489 12.0843C16.2347 13.162 15.7057 14.1519 14.9289 14.9289L14.32 15.5367C13.9719 15.8848 13.6958 16.2982 13.5074 16.753C13.3191 17.2079 13.2222 17.6954 13.2222 18.1878V18.7778C13.2222 19.3671 12.9881 19.9324 12.5713 20.3491C12.1546 20.7659 11.5894 21 11 21C10.4106 21 9.8454 20.7659 9.42865 20.3491C9.0119 19.9324 8.77778 19.3671 8.77778 18.7778V18.1878C8.77778 17.1933 8.38222 16.2389 7.68 15.5367L7.07111 14.9289Z"
    stroke="#ffffff" stroke-width="1.2" stroke-linecap="round" stroke-linejoin="round" />
</svg>