<svg width="24" height="24" viewBox="0 0 24 24" fill="none" xmlns="http://www.w3.org/2000/svg">
<path d="M10.9846 24C12.7957 24 14.3107 22.7089 14.6586 21H7.31055C7.65863 22.7089 9.17365 24 10.9846 24V24Z" fill="white"/>
<path d="M17.997 11.999C17.9929 11.999 17.9889 11.9999 17.9849 11.9999C14.1259 11.9999 10.9849 8.85986 10.9849 5C10.9849 3.9389 11.229 2.93585 11.654 2.03387C11.4339 2.013 11.2109 2 10.9849 2C7.11903 2 3.985 5.13385 3.985 8.99994V11.7879C3.985 13.7669 3.11799 15.6349 1.59694 16.9209C1.08992 17.3539 0.864881 18.0439 1.04689 18.717C1.25892 19.4999 2.03291 20 2.84498 20H19.1199C19.9719 20 20.775 19.4479 20.9479 18.613C21.0819 17.967 20.8519 17.3219 20.351 16.9009C18.8969 15.682 18.0559 13.8909 17.997 11.999V11.999Z" fill="white"/>
<path d="M22.9843 5.00006C22.9843 7.76147 20.7458 9.99994 17.9843 9.99994C15.2228 9.99994 12.9844 7.76147 12.9844 5.00006C12.9844 2.23865 15.2228 0 17.9843 0C20.7458 0 22.9843 2.23865 22.9843 5.00006Z" fill="white"/>
</svg>
