<svg width="40" height="40" viewBox="0 0 40 40" fill="none" xmlns="http://www.w3.org/2000/svg">
<g clip-path="url(#clip0_334_3183)">
<path d="M39.1735 21.1356C39.9658 22.3714 40.2022 23.8935 39.8223 25.3114C39.4424 26.7293 38.4766 27.9292 37.1725 28.6034C36.6085 28.8949 36.1861 29.392 36.0424 29.933C35.8211 30.7671 34.9654 31.264 34.1312 31.0422C33.2971 30.8208 32.8005 29.9651 33.0219 29.1309C33.3935 27.7314 34.3833 26.5271 35.7374 25.8272C36.2698 25.552 36.6485 25.0815 36.8036 24.5025C36.9587 23.9237 36.866 23.3269 36.5425 22.8223C35.4434 21.1078 35.4434 18.8922 36.5425 17.1777C36.866 16.6731 36.9587 16.0763 36.8036 15.4975C36.6484 14.9185 36.2698 14.448 35.7374 14.1728C33.9282 13.2376 32.8205 11.3189 32.915 9.28442C32.9428 8.68578 32.7248 8.12261 32.301 7.69883C31.8772 7.27497 31.3144 7.05589 30.7153 7.08479C28.681 7.17855 26.7622 6.07167 25.8269 4.26247C25.5517 3.73009 25.0813 3.35139 24.5024 3.1963C23.9233 3.04121 23.3266 3.13395 22.8221 3.45741C21.1076 4.55656 18.8919 4.55656 17.1774 3.45741C16.6728 3.13395 16.0761 3.04136 15.4971 3.1963C14.9183 3.35139 14.4478 3.73009 14.1726 4.26247C13.2372 6.07159 11.3176 7.1784 9.28416 7.08479C8.68506 7.05682 8.12228 7.27512 7.6985 7.69883C7.27471 8.12253 7.05665 8.68578 7.08447 9.28449C7.17908 11.3189 6.07126 13.2377 4.26214 14.1728C3.72976 14.448 3.35106 14.9185 3.19597 15.4975C3.04088 16.0763 3.13354 16.6731 3.45708 17.1777C4.55615 18.8922 4.55615 21.1078 3.45708 22.8223C3.13354 23.3269 3.04088 23.9237 3.19597 24.5025C3.35113 25.0815 3.72976 25.552 4.26222 25.8272C6.07134 26.7624 7.17908 28.6811 7.08454 30.7156C7.05673 31.3142 7.27479 31.8774 7.69857 32.3012C8.12236 32.725 8.68537 32.9437 9.28424 32.9152C11.3179 32.8212 13.2374 33.9282 14.1727 35.7375C14.4478 36.2699 14.9183 36.6486 15.4972 36.8037C16.0762 36.9587 16.6729 36.8661 17.1774 36.5426C18.892 35.4434 21.1076 35.4434 22.8221 36.5426C23.3268 36.8661 23.9235 36.9587 24.5024 36.8037C25.0813 36.6486 25.5517 36.2699 25.827 35.7375C26.5548 34.3296 27.8192 33.3848 29.3872 33.077C30.2342 32.911 31.0553 33.4627 31.2215 34.3094C31.3876 35.1563 30.8359 35.9776 29.989 36.1438C29.3496 36.2692 28.8963 36.6058 28.6033 37.1726C27.9292 38.4767 26.7293 39.4426 25.3114 39.8224C23.8936 40.2024 22.3714 39.966 21.1355 39.1736C20.4456 38.7312 19.5542 38.7313 18.8643 39.1736C18.0153 39.7178 17.0311 39.9998 16.0385 39.9999C15.5862 39.9999 15.1323 39.9414 14.6885 39.8224C13.2706 39.4426 12.0707 38.4767 11.3966 37.1727C11.0203 36.4448 10.2486 35.9985 9.42964 36.0371C7.96344 36.1053 6.52684 35.5491 5.48887 34.511C4.45083 33.4731 3.89469 32.0367 3.96282 30.5703C4.00087 29.7517 3.55513 28.9797 2.82727 28.6033C1.52318 27.9291 0.557406 26.7293 0.177455 25.3113C-0.202495 23.8933 0.034007 22.3714 0.826255 21.1356C1.26855 20.4457 1.26855 19.5542 0.826255 18.8643C0.034007 17.6285 -0.202495 16.1064 0.177455 14.6885C0.557406 13.2706 1.52318 12.0707 2.82727 11.3965C3.55521 11.0203 4.00095 10.2482 3.9629 9.42958C3.89469 7.96314 4.45091 6.52686 5.48895 5.48881C6.52692 4.45084 7.96281 3.89526 9.42972 3.96284C10.2473 4.00144 11.0204 3.55523 11.3967 2.8272C12.0708 1.5232 13.2707 0.557345 14.6886 0.177472C16.1066 -0.202323 17.6286 0.0340235 18.8645 0.826349C19.5543 1.26857 20.4458 1.26849 21.1358 0.826349C22.3716 0.0341016 23.8935 -0.202557 25.3116 0.177472C26.7295 0.557345 27.9293 1.5232 28.6034 2.8272C28.9797 3.55515 29.7509 4.00042 30.5704 3.96284C32.0365 3.89424 33.4732 4.45077 34.5112 5.48889C35.5492 6.52686 36.1053 7.96322 36.0372 9.42958C35.9992 10.2482 36.4449 11.0203 37.1728 11.3966C38.4769 12.0708 39.4426 13.2706 39.8226 14.6886C40.2025 16.1065 39.966 17.6286 39.1738 18.8644C38.7313 19.5542 38.7312 20.4457 39.1735 21.1356ZM20.0014 30.3914C20.8644 30.3914 21.564 29.6918 21.564 28.8288V27.924C23.7135 27.625 25.3159 25.8651 25.3159 23.6722V22.7222C25.3159 21.5414 24.8536 20.4384 24.0144 19.6164C23.1868 18.8057 22.085 18.3592 20.9119 18.3592H19.48C18.7916 18.3592 18.2101 17.751 18.2101 17.031V16.4611C18.2101 15.7615 18.7561 15.234 19.48 15.234H20.8341C21.2321 15.234 21.6437 15.5004 21.6437 15.9463C21.6437 16.8093 22.3433 17.5089 23.2063 17.5089C24.0694 17.5089 24.7689 16.8093 24.7689 15.9463C24.7689 14.0735 23.386 12.5108 21.564 12.176V11.1712C21.564 10.3082 20.8644 9.60858 20.0014 9.60858C19.1384 9.60858 18.4388 10.3082 18.4388 11.1712V12.2297C17.6653 12.4122 16.9569 12.7979 16.3824 13.36C15.5457 14.1788 15.0848 15.2801 15.0848 16.4611V17.0309C15.0848 19.4866 17.0565 21.4844 19.48 21.4844H20.9119C21.6289 21.4844 22.1906 22.028 22.1906 22.7221V23.6721C22.1906 24.4415 21.5474 24.844 20.9119 24.844H18.5848C18.2127 24.844 17.8121 24.6301 17.8121 24.1605C17.8121 23.2974 17.1125 22.5979 16.2495 22.5979C15.3864 22.5979 14.6868 23.2974 14.6868 24.1605C14.6868 26.2484 16.3234 27.893 18.4387 27.9658V28.8287C18.4388 29.6918 19.1384 30.3914 20.0014 30.3914Z" fill="#DD4124"/>
</g>
<defs>
<clipPath id="clip0_334_3183">
<rect width="40" height="40" fill="white"/>
</clipPath>
</defs>
</svg>
