<svg width="24" height="24" viewBox="0 0 24 24" fill="none" xmlns="http://www.w3.org/2000/svg">
<g clip-path="url(#clip0_334_2688)">
<path d="M23.8631 8.76377C23.7457 8.62058 23.5705 8.537 23.3868 8.537H21.051C20.4745 7.01665 19.7236 5.52702 18.87 4.96472C15.9171 3.02218 8.08491 3.02218 5.13208 4.96472C4.27787 5.52763 3.52999 7.0191 2.95048 8.537H0.614639C0.42905 8.537 0.254522 8.62058 0.138376 8.76377C0.0216142 8.90634 -0.0250904 9.095 0.0130107 9.27629L0.358993 10.9527C0.417988 11.2385 0.669947 11.4425 0.960622 11.4425H1.65259C0.984588 12.2131 0.660729 13.1835 0.656428 14.1545C0.652126 15.354 1.1075 16.4381 1.94019 17.205C1.94941 17.213 1.95862 17.2185 1.96723 17.2265V19.5722C1.96723 20.0804 2.38019 20.494 2.88903 20.494H5.04358C5.55242 20.494 5.96538 20.0804 5.96538 19.5722V18.6295H18.0354V19.5722C18.0354 20.0804 18.4484 20.494 18.9572 20.494H21.1118C21.6194 20.494 22.0336 20.0804 22.0336 19.5722V17.2726C22.9173 16.4633 23.3395 15.3497 23.345 14.238C23.3487 13.2339 23.0101 12.2279 22.3028 11.4413H23.0408C23.3327 11.4413 23.5847 11.2373 23.6424 10.9509L23.989 9.27506C24.0247 9.095 23.9798 8.90757 23.8631 8.76377ZM6.14421 6.50413C8.49788 4.95489 15.5029 4.95489 17.8554 6.50413C18.3126 6.80402 18.9007 8.01649 19.4396 9.50121H4.56117C5.09889 8.01711 5.687 6.80525 6.14421 6.50413ZM3.38742 14.3855C3.38742 13.3838 4.19983 12.5726 5.2009 12.5726C6.20321 12.5726 7.01439 13.3838 7.01439 14.3855C7.01439 15.3872 6.20321 16.199 5.2009 16.199C4.19983 16.199 3.38742 15.3872 3.38742 14.3855ZM18.8239 16.199C17.8228 16.199 17.0104 15.3872 17.0104 14.3855C17.0104 13.3838 17.8228 12.5726 18.8239 12.5726C19.8262 12.5726 20.6374 13.3838 20.6374 14.3855C20.6374 15.3872 19.825 16.199 18.8239 16.199Z" fill="#DD4124"/>
</g>
<defs>
<clipPath id="clip0_334_2688">
<rect width="24.0006" height="24" fill="white"/>
</clipPath>
</defs>
</svg>
