<svg width="48" height="48" viewBox="0 0 48 48" fill="none" xmlns="http://www.w3.org/2000/svg">
<g clip-path="url(#clip0_334_3165)">
<path d="M40.9706 7.02947C36.4375 2.49647 30.4106 0 24 0C17.5894 0 11.5625 2.49647 7.02938 7.02947C2.49647 11.5625 0 17.5894 0 24C0 30.4106 2.49647 36.4375 7.02938 40.9705C11.5625 45.5035 17.5894 48 24 48C30.4106 48 36.4375 45.5035 40.9706 40.9705C45.5035 36.4375 48 30.4106 48 24C48 17.5894 45.5035 11.5625 40.9706 7.02947ZM18.6729 27.1082C18.124 26.1696 17.8338 25.0948 17.8338 24C17.8338 20.5999 20.6 17.8338 24 17.8338C27.4 17.8338 30.1662 20.6 30.1662 24C30.1662 27.4 27.4001 30.1662 24 30.1662V32.9787C28.9509 32.9787 32.9787 28.9508 32.9787 24C32.9787 19.0492 28.9509 15.0213 24 15.0213C19.0491 15.0213 15.0213 19.0491 15.0213 24C15.0213 25.1157 15.2288 26.218 15.6282 27.2486L11.5134 29.6141C10.7226 27.8672 10.3125 25.969 10.3125 24C10.3125 21.5674 10.9627 19.1763 12.1926 17.085L9.76828 15.6593C8.28431 18.1822 7.5 21.0665 7.5 24C7.5 27.7449 8.72813 31.2776 11.0515 34.2163C13.0666 36.7649 15.8448 38.6891 18.9063 39.6952V44.5738C15.1947 43.662 11.79 41.7536 9.01819 38.9818C5.01638 34.98 2.8125 29.6594 2.8125 24C2.8125 18.3406 5.01638 13.02 9.01819 9.01819C9.56091 8.47547 10.1287 7.96697 10.7175 7.49137L16.0428 12.8167L16.9841 12.2522C19.1003 10.9832 21.5263 10.3125 24 10.3125C26.4738 10.3125 28.8998 10.9832 31.0157 12.2522L32.4622 9.84019C29.9093 8.30916 26.9831 7.5 24 7.5C21.3878 7.5 18.819 8.12063 16.5065 9.30281L13.0539 5.85028C16.3231 3.87056 20.0801 2.8125 24 2.8125C29.6594 2.8125 34.98 5.01638 38.9818 9.01819C39.5546 9.591 40.0894 10.1917 40.5873 10.8158L35.2558 16.1471C36.6719 18.125 37.6875 21.1094 37.6875 24C37.6875 30.7702 32.7464 36.407 26.2813 37.4963V37.4962C25.9342 37.5548 24.6203 37.6875 24 37.6875C22.9134 37.6875 21.7014 37.5255 20.6562 37.2738C17.7554 36.5427 15.1563 34.9375 12.9319 32.0428L19.3883 28.3313L18.6729 27.1082ZM38.9818 38.9818C34.98 42.9836 29.6594 45.1875 24 45.1875C23.2325 45.1875 22.4714 45.1455 21.7188 45.0654V40.3427C22.4716 40.4473 23.2334 40.5 24 40.5C24.8048 40.5 25.9178 40.392 26.2813 40.3417V40.3416C34.3036 39.2271 40.5 32.3242 40.5 24C40.5 21.3125 39.7344 18.7188 38.7564 16.624L42.2164 13.1641C44.1533 16.4074 45.1875 20.1241 45.1875 24C45.1875 29.6594 42.9836 34.98 38.9818 38.9818Z" fill="#DD4124"/>
</g>
<defs>
<clipPath id="clip0_334_3165">
<rect width="48" height="48" fill="white"/>
</clipPath>
</defs>
</svg>
