<svg width="20" height="18" viewBox="0 0 20 18" fill="none" xmlns="http://www.w3.org/2000/svg">
<path d="M18.1669 3.1688L15.6191 3.16892C15.1369 1.81279 13.8552 0.835938 12.3337 0.835938C10.812 0.835938 9.53016 1.81302 9.04798 3.16927L1.83354 3.16962C1.18919 3.16974 0.666876 3.69205 0.666992 4.3364V4.33652C0.667109 4.98075 1.18943 5.50307 1.83366 5.50307L9.04798 5.50272C9.53016 6.85909 10.812 7.83594 12.3337 7.83594C13.8555 7.83594 15.1373 6.85874 15.6193 5.50237L18.167 5.50225C18.8112 5.50214 19.3337 4.97982 19.3335 4.33547V4.33535C19.3335 3.691 18.8112 3.16869 18.1669 3.1688Z" fill="#DD4124"/>
<path d="M18.1668 12.5047L10.9524 12.5051C10.4704 11.1487 9.18856 10.1719 7.66688 10.1719C6.14508 10.1719 4.86326 11.1491 4.38119 12.5054L1.83354 12.5056C1.18919 12.5057 0.666876 13.028 0.666992 13.6723V13.6725C0.667109 14.3167 1.18943 14.839 1.83366 14.839L4.38143 14.8389C4.86361 16.195 6.14531 17.1719 7.66688 17.1719C9.18856 17.1719 10.4704 16.1948 10.9526 14.8385L18.167 14.8382C18.8112 14.8381 19.3337 14.3158 19.3335 13.6714V13.6713C19.3334 13.0269 18.8111 12.5046 18.1668 12.5047Z" fill="#DD4124"/>
</svg>
