<svg width="24" height="22" viewBox="0 0 24 22" fill="none" xmlns="http://www.w3.org/2000/svg">
<path d="M23.0504 17.7397C23.9733 15.9578 24 12.3998 24 12C24 5.38317 18.6168 0 12 0C5.38317 0 0 5.38317 0 12C0 12.3967 0.0263479 15.9021 0.928239 17.6973C1.11652 18.1333 2.60361 21.3179 6.08935 21.8988C6.14739 21.9085 6.20511 21.9132 6.26211 21.9132C6.76298 21.9132 7.20502 21.5515 7.29013 21.0411C7.38489 20.4727 7.00083 19.935 6.43246 19.8402C5.81322 19.737 5.28104 19.5033 4.83046 19.2099C5.65702 19.0102 6.4513 18.5873 7.04106 17.9975C7.9172 17.1215 8.39217 15.8673 8.31163 14.6428C8.24094 13.5664 7.75317 12.6294 6.93815 12.0045C6.54339 11.7018 5.74278 11.275 3.35791 11.0645C2.91737 11.0257 2.4973 11.0008 2.13854 10.9848C2.64848 5.99394 6.87652 2.08696 11.9999 2.08696C17.1233 2.08696 21.3515 5.99394 21.8613 10.985C21.5026 11.0009 21.0825 11.0258 20.642 11.0647C18.2571 11.2752 17.4564 11.7019 17.0617 12.0046C16.2468 12.6295 15.7589 13.5665 15.6882 14.6429C15.6078 15.8675 16.0827 17.1216 16.9588 17.9977C17.798 18.8369 19.0507 19.34 20.2221 19.34C20.4203 19.34 20.6163 19.3255 20.8075 19.2959C21.815 19.1397 22.6115 18.587 23.0504 17.7397V17.7397Z" fill="white"/>
</svg>
