<svg width="28" height="28" viewBox="0 0 28 28" fill="none" xmlns="http://www.w3.org/2000/svg">
<path d="M17.5293 25.6719C18.9913 25.6719 20.2458 25.5951 21.2939 25.3621C22.3555 25.1262 23.2756 24.715 23.9933 23.9972C24.7111 23.2795 25.1223 22.3594 25.3582 21.2978C25.5912 20.2497 25.668 18.9952 25.668 17.5332V14.0052C25.668 12.7165 24.6233 11.6719 23.3346 11.6719H14.0013C12.7126 11.6719 11.668 12.7165 11.668 14.0052V23.3385C11.668 24.6272 12.7126 25.6719 14.0013 25.6719H17.5293Z" fill="white"/>
<path d="M2.33398 17.5332C2.33398 18.9952 2.4108 20.2497 2.64376 21.2978C2.87966 22.3594 3.2909 23.2795 4.00865 23.9972C4.72641 24.715 5.64654 25.1262 6.70799 25.3621C6.80964 25.3846 6.91181 25.4059 7.01439 25.4257C8.27966 25.6701 9.33398 24.5992 9.33398 23.3105V14.0052C9.33398 12.7165 8.28932 11.6719 7.00065 11.6719H4.66732C3.37865 11.6719 2.33398 12.7165 2.33398 14.0052V17.5332Z" fill="white"/>
<path d="M10.4723 2.33594C9.01032 2.33594 7.75586 2.41275 6.70764 2.64571C5.64619 2.88161 4.72606 3.29285 4.0083 4.01061C3.29055 4.72836 2.87931 5.64849 2.64341 6.70995C2.62404 6.79711 2.60582 6.88455 2.5887 6.97225C2.33859 8.25405 3.42905 9.33594 4.73502 9.33594H23.3057C24.5944 9.33594 25.6653 8.28161 25.4208 7.01635C25.401 6.91376 25.3798 6.8116 25.3573 6.70995C25.1212 5.64849 24.7101 4.72836 23.9923 4.01061C23.2745 3.29285 22.3544 2.88161 21.2929 2.64571C20.2447 2.41275 18.9903 2.33594 17.5283 2.33594H10.4723Z" fill="white"/>
</svg>
