<svg width="40" height="40" viewBox="0 0 40 40" fill="none" xmlns="http://www.w3.org/2000/svg">
<g clip-path="url(#clip0_334_3188)">
<path d="M11.7343 19.6082C9.60846 17.435 8.4375 14.5776 8.4375 11.5625C8.4375 5.18677 13.6243 0 20 0C26.3757 0 31.5625 5.18677 31.5625 11.5625C31.5625 17.0044 27.7829 21.5799 22.7112 22.803C22.1722 23.7421 21.1603 24.375 20 24.375C18.2742 24.375 16.875 22.9758 16.875 21.25C16.875 19.5242 18.2742 18.125 20 18.125C21.1102 18.125 22.0844 18.7045 22.6389 19.577C26.0028 18.4665 28.4375 15.2939 28.4375 11.5625C28.4375 6.9101 24.6524 3.125 20 3.125C15.3476 3.125 11.5625 6.9101 11.5625 11.5625C11.5625 13.7558 12.417 15.8371 13.9682 17.4231C14.5715 18.0399 14.5609 19.0289 13.9441 19.6326C13.327 20.2359 12.338 20.2252 11.7343 19.6082ZM36.8271 25.3915C35.5014 24.2267 33.8937 23.2202 32.0483 22.4002C31.2598 22.0499 30.3366 22.4051 29.986 23.1937C29.6356 23.9822 29.9908 24.9057 30.7794 25.256C32.3355 25.9476 33.6765 26.7828 34.7644 27.739C36.1057 28.9175 36.875 30.6241 36.875 32.4219V35.3125C36.875 36.174 36.174 36.875 35.3125 36.875H4.6875C3.82599 36.875 3.125 36.174 3.125 35.3125V32.4219C3.125 30.6241 3.89435 28.9175 5.2356 27.739C6.5451 26.5881 8.91052 25.0076 12.742 24.0125C13.5773 23.7955 14.0784 22.9422 13.8614 22.1072C13.6444 21.272 12.7914 20.7709 11.9562 20.9879C7.53082 22.1375 4.73724 24.017 3.17291 25.3915C1.15631 27.1631 0 29.7256 0 32.4219V35.3125C0 37.8973 2.10266 40 4.6875 40H35.3125C37.8973 40 40 37.8973 40 35.3125V32.4219C40 29.7256 38.8437 27.1631 36.8271 25.3915Z" fill="#DD4124"/>
</g>
<defs>
<clipPath id="clip0_334_3188">
<rect width="40" height="40" fill="white"/>
</clipPath>
</defs>
</svg>
