<svg width="24" height="24" viewBox="0 0 24 24" fill="none" xmlns="http://www.w3.org/2000/svg">
<g clip-path="url(#clip0_334_2636)">
<path d="M14.7079 15.6812C13.9517 16.2349 13.0195 16.5623 12.0105 16.5623C9.48502 16.5623 7.43775 14.5149 7.43775 11.9895C7.43775 9.70312 9.11573 7.80877 11.3074 7.47052V0C5.00541 0.364641 0 5.59673 0 11.9895C0 18.6183 5.38172 24 12.0105 24C15.0718 24 17.8667 22.8516 19.9897 20.9629L14.7079 15.6812Z" fill="white"/>
<path d="M16.53 12.6953C16.416 13.4333 16.1255 14.1129 15.7031 14.6899L20.9845 19.9713C22.7275 18.0121 23.8394 15.4804 24.0005 12.6953H16.53Z" fill="white"/>
<path d="M12.7129 7.47052C14.6753 7.77338 16.2259 9.32391 16.5287 11.2864H23.9992C23.6481 5.21709 18.7821 0.351141 12.7129 0V7.47052Z" fill="white"/>
</g>
<defs>
<clipPath id="clip0_334_2636">
<rect width="24" height="24" fill="white"/>
</clipPath>
</defs>
</svg>
