<svg width="24" height="24" viewBox="0 0 24 24" fill="none" xmlns="http://www.w3.org/2000/svg">
<path d="M20.2328 2.3985C18.5027 2.3879 17.3087 3.67519 17.3087 3.67519L13.706 7.27784L7.08647 4.86712C6.44151 4.63223 5.71886 4.79237 5.2335 5.27771L3.90307 6.60814L10.0157 10.8456C9.95346 10.9078 8.84816 12.246 7.50058 13.7108C7.42587 13.7921 7.31182 13.8258 7.20262 13.8093L4.94601 12.7662C4.62769 12.6457 4.26832 12.723 4.02766 12.9637L2.40039 14.5909L6.38619 17.6126L9.40791 21.5984L11.0352 19.9712C11.2758 19.7305 11.3531 19.3712 11.2326 19.0528L10.1896 16.7962C10.173 16.687 10.2068 16.573 10.288 16.4983C11.7529 15.1507 13.091 14.0454 13.1533 13.9831L17.3907 20.0958L18.7211 18.7653C19.2065 18.28 19.3666 17.5573 19.1317 16.9124L16.721 10.2928L20.3236 6.69016C20.3236 6.69016 21.6109 5.49609 21.6003 3.76608C21.5957 3.00656 20.9923 2.40318 20.2328 2.3985Z" fill="#DD4124"/>
</svg>
