<svg width="16" height="16" viewBox="0 0 16 16" fill="none" xmlns="http://www.w3.org/2000/svg">
<g clip-path="url(#clip0_334_2943)">
<path d="M8.00018 5.82031C6.79653 5.82031 5.81836 6.79848 5.81836 8.00213C5.81836 9.20578 6.79653 10.184 8.00018 10.184C9.20383 10.184 10.182 9.20578 10.182 8.00213C10.182 6.79848 9.20379 5.82031 8.00018 5.82031Z" fill="#DD4124"/>
<path d="M8.00002 2.54688C4.36364 2.54688 1.25819 4.80867 0 8.00142C1.25819 11.1941 4.36364 13.456 8.00002 13.456C11.64 13.456 14.7418 11.1941 16 8.00142C14.7418 4.80867 11.64 2.54688 8.00002 2.54688ZM8.00002 11.6378C5.99274 11.6378 4.36364 10.0087 4.36364 8.00139C4.36364 5.99412 5.99274 4.36505 8.00002 4.36505C10.0073 4.36505 11.6364 5.99415 11.6364 8.00142C11.6364 10.0087 10.0073 11.6378 8.00002 11.6378Z" fill="#DD4124"/>
</g>
<defs>
<clipPath id="clip0_334_2943">
<rect width="16" height="16" fill="white"/>
</clipPath>
</defs>
</svg>
