<svg width="24" height="24" viewBox="0 0 24 24" fill="none" xmlns="http://www.w3.org/2000/svg">
<g clip-path="url(#clip0_334_2985)">
<path fill-rule="evenodd" clip-rule="evenodd" d="M14.2992 2.77352V2.32975C14.2992 1.95532 14.448 1.59623 14.7127 1.33147C14.9775 1.06671 15.3366 0.917969 15.711 0.917969C16.0854 0.917969 16.4445 1.06671 16.7093 1.33147C16.9741 1.59623 17.1228 1.95532 17.1228 2.32975V2.77356H22.588C22.9624 2.77356 23.3215 2.9223 23.5863 3.18705C23.851 3.4518 23.9997 3.81088 23.9997 4.1853C23.9997 4.55971 23.851 4.91879 23.5863 5.18354C23.3215 5.4483 22.9624 5.59703 22.588 5.59703H17.1224V6.04089C17.1224 6.22628 17.0859 6.40986 17.0149 6.58114C16.944 6.75242 16.84 6.90805 16.7089 7.03914C16.5778 7.17023 16.4222 7.27422 16.2509 7.34516C16.0796 7.41611 15.896 7.45263 15.7106 7.45263C15.5253 7.45263 15.3417 7.41611 15.1704 7.34516C14.9991 7.27422 14.8435 7.17023 14.7124 7.03914C14.5813 6.90805 14.4773 6.75242 14.4064 6.58114C14.3354 6.40986 14.2989 6.22628 14.2989 6.04089V5.59708H1.41171C1.22563 5.59815 1.04117 5.56243 0.868951 5.49196C0.696727 5.42149 0.540133 5.31767 0.408174 5.18647C0.276216 5.05527 0.171496 4.89928 0.100038 4.72746C0.0285799 4.55565 -0.00820703 4.3714 -0.00820703 4.18532C-0.00820703 3.99924 0.0285799 3.81499 0.100038 3.64318C0.171496 3.47136 0.276216 3.31537 0.408174 3.18417C0.540133 3.05297 0.696727 2.94915 0.868951 2.87868C1.04117 2.80821 1.22563 2.77249 1.41171 2.77356L14.2992 2.77352ZM10.0013 13.4125V13.8563C10.0013 14.0417 9.9648 14.2253 9.89386 14.3966C9.82291 14.5678 9.71892 14.7235 9.58783 14.8546C9.45674 14.9857 9.30111 15.0896 9.12983 15.1606C8.95855 15.2315 8.77498 15.268 8.58958 15.268C8.40419 15.268 8.22062 15.2315 8.04934 15.1606C7.87806 15.0896 7.72243 14.9857 7.59134 14.8546C7.46025 14.7235 7.35626 14.5678 7.28531 14.3966C7.21437 14.2253 7.17785 14.0417 7.17785 13.8563V13.4125H1.41162C1.22554 13.4135 1.04108 13.3778 0.868857 13.3073C0.696633 13.2369 0.540039 13.133 0.408081 13.0018C0.276122 12.8706 0.171402 12.7147 0.0999443 12.5428C0.0284861 12.371 -0.00830078 12.1868 -0.00830078 12.0007C-0.00830078 11.8146 0.0284861 11.6304 0.0999443 11.4586C0.171402 11.2867 0.276122 11.1307 0.408081 10.9995C0.540039 10.8683 0.696633 10.7645 0.868857 10.6941C1.04108 10.6236 1.22554 10.5879 1.41162 10.5889H7.1778V10.1452C7.1778 9.77074 7.32654 9.41165 7.5913 9.14689C7.85606 8.88213 8.21516 8.73339 8.58958 8.73339C8.96401 8.73339 9.3231 8.88213 9.58786 9.14689C9.85262 9.41165 10.0014 9.77074 10.0014 10.1452V10.589H22.5882C22.9612 10.5912 23.3182 10.7409 23.5812 11.0054C23.8442 11.2699 23.9918 11.6278 23.9918 12.0008C23.9918 12.3738 23.8442 12.7317 23.5812 12.9962C23.3182 13.2607 22.9612 13.4104 22.5882 13.4125L10.0013 13.4125ZM22.4389 21.2279V21.6717C22.4367 22.0447 22.2871 22.4017 22.0225 22.6647C21.758 22.9278 21.4001 23.0754 21.0271 23.0754C20.6541 23.0754 20.2962 22.9278 20.0317 22.6647C19.7671 22.4017 19.6174 22.0447 19.6153 21.6717V21.2279H1.41171C1.22563 21.229 1.04117 21.1932 0.868951 21.1228C0.696727 21.0523 0.540133 20.9485 0.408174 20.8173C0.276216 20.6861 0.171496 20.5301 0.100038 20.3583C0.0285799 20.1864 -0.00820703 20.0022 -0.00820703 19.8161C-0.00820703 19.63 0.0285799 19.4458 0.100038 19.274C0.171496 19.1022 0.276216 18.9462 0.408174 18.815C0.540133 18.6838 0.696727 18.5799 0.868951 18.5095C1.04117 18.439 1.22563 18.4033 1.41171 18.4044H19.6155V17.9605C19.6155 17.7751 19.652 17.5915 19.7229 17.4203C19.7939 17.249 19.8979 17.0933 20.029 16.9623C20.1601 16.8312 20.3157 16.7272 20.487 16.6562C20.6582 16.5853 20.8418 16.5488 21.0272 16.5488C21.2126 16.5488 21.3962 16.5853 21.5675 16.6562C21.7387 16.7272 21.8944 16.8312 22.0255 16.9623C22.1565 17.0933 22.2605 17.249 22.3315 17.4203C22.4024 17.5915 22.4389 17.7751 22.4389 17.9605V18.4044H22.5882C22.9626 18.4044 23.3217 18.5531 23.5864 18.8178C23.8512 19.0826 23.9999 19.4417 23.9999 19.8161C23.9999 20.1905 23.8512 20.5496 23.5864 20.8143C23.3217 21.0791 22.9626 21.2278 22.5882 21.2278L22.4389 21.2279Z" fill="#DD4124"/>
</g>
<defs>
<clipPath id="clip0_334_2985">
<rect width="24" height="24" fill="white"/>
</clipPath>
</defs>
</svg>
