<svg width="32" height="32" viewBox="0 0 32 32" fill="none" xmlns="http://www.w3.org/2000/svg">
<path d="M27.134 27.134C28.0729 26.0304 28.7003 24.6963 28.9513 23.2692C29.0873 22.6916 29.2654 22.1246 29.4844 21.5731C29.7134 21.0532 29.9806 20.551 30.284 20.0708C31.1331 18.872 31.6398 17.4648 31.75 16C31.642 14.531 31.1351 13.1193 30.284 11.9171C29.9831 11.4354 29.7159 10.9335 29.4844 10.4148C29.265 9.86754 29.0868 9.30462 28.9513 8.73077C28.6956 7.31247 28.0686 5.98728 27.134 4.89019C26.0331 3.94256 24.6987 3.30673 23.2692 3.04865C22.6931 2.9071 22.1266 2.72904 21.5731 2.51558C21.0532 2.28664 20.551 2.01936 20.0708 1.71596C18.872 0.866925 17.4648 0.36016 16 0.25C14.531 0.357998 13.1193 0.864862 11.9171 1.71596C11.4369 2.01936 10.9347 2.28664 10.4148 2.51558C9.86129 2.72904 9.29477 2.9071 8.71865 3.04865C7.2959 3.30177 5.96615 3.92901 4.86596 4.86596C3.92757 5.96989 3.30028 7.30392 3.04865 8.73077C2.91437 9.31284 2.73616 9.8839 2.51558 10.439C2.28664 10.9589 2.01936 11.4611 1.71596 11.9413C0.868982 13.1366 0.362316 14.5394 0.25 16C0.357998 17.469 0.864862 18.8807 1.71596 20.0829C2.01936 20.5631 2.28664 21.0653 2.51558 21.5852C2.73401 22.1328 2.91217 22.6957 3.04865 23.2692C3.30177 24.692 3.92901 26.0217 4.86596 27.1219C5.96823 28.0652 7.30251 28.6968 8.73077 28.9513C9.30845 29.0873 9.87536 29.2654 10.4269 29.4844C10.9468 29.7134 11.449 29.9806 11.9292 30.284C13.128 31.1331 14.5352 31.6398 16 31.75C17.469 31.642 18.8807 31.1351 20.0829 30.284C20.5631 29.9806 21.0653 29.7134 21.5852 29.4844C22.1368 29.2654 22.7037 29.0873 23.2813 28.9513C24.7041 28.6982 26.0338 28.071 27.134 27.134ZM13.5769 14.7885H18.4231C19.387 14.7885 20.3115 15.1714 20.9931 15.853C21.6748 16.5346 22.0577 17.4591 22.0577 18.4231C22.0577 19.387 21.6748 20.3115 20.9931 20.9931C20.3115 21.6748 19.387 22.0577 18.4231 22.0577H17.2115V23.2692C17.2115 23.5905 17.0839 23.8987 16.8567 24.1259C16.6295 24.3531 16.3213 24.4808 16 24.4808C15.6787 24.4808 15.3705 24.3531 15.1433 24.1259C14.9161 23.8987 14.7885 23.5905 14.7885 23.2692V22.0577H11.1538C10.8325 22.0577 10.5244 21.93 10.2972 21.7028C10.07 21.4756 9.94231 21.1675 9.94231 20.8462C9.94231 20.5248 10.07 20.2167 10.2972 19.9895C10.5244 19.7623 10.8325 19.6346 11.1538 19.6346H18.4231C18.7444 19.6346 19.0526 19.507 19.2798 19.2798C19.507 19.0526 19.6346 18.7444 19.6346 18.4231C19.6346 18.1018 19.507 17.7936 19.2798 17.5664C19.0526 17.3392 18.7444 17.2115 18.4231 17.2115H13.5769C12.613 17.2115 11.6885 16.8286 11.0069 16.147C10.3252 15.4654 9.94231 14.5409 9.94231 13.5769C9.94231 12.613 10.3252 11.6885 11.0069 11.0069C11.6885 10.3252 12.613 9.94231 13.5769 9.94231H14.7885V8.73077C14.7885 8.40945 14.9161 8.10129 15.1433 7.87408C15.3705 7.64687 15.6787 7.51923 16 7.51923C16.3213 7.51923 16.6295 7.64687 16.8567 7.87408C17.0839 8.10129 17.2115 8.40945 17.2115 8.73077V9.94231H20.8462C21.1675 9.94231 21.4756 10.07 21.7028 10.2972C21.93 10.5244 22.0577 10.8325 22.0577 11.1538C22.0577 11.4752 21.93 11.7833 21.7028 12.0105C21.4756 12.2377 21.1675 12.3654 20.8462 12.3654H13.5769C13.2556 12.3654 12.9474 12.493 12.7202 12.7202C12.493 12.9474 12.3654 13.2556 12.3654 13.5769C12.3654 13.8982 12.493 14.2064 12.7202 14.4336C12.9474 14.6608 13.2556 14.7885 13.5769 14.7885Z" fill="#DD4124"/>
</svg>
