<svg width="20" height="20" viewBox="0 0 20 20" fill="none" xmlns="http://www.w3.org/2000/svg">
<path fill-rule="evenodd" clip-rule="evenodd" d="M18.479 5.57827L13.093 1.12502C11.2787 -0.375007 8.7213 -0.375007 6.90703 1.12502L1.52097 5.57827C0.55059 6.38059 0 7.59705 0 8.8663V15.8109C0 18.066 1.73415 20 4 20H6C7.10457 20 8 19.1046 8 18V14.7478C8 13.4803 8.9521 12.5587 10 12.5587C11.0479 12.5587 12 13.4803 12 14.7478V18C12 19.1046 12.8954 20 14 20H16C18.2659 20 20 18.066 20 15.8109V8.8663C20 7.59706 19.4494 6.38059 18.479 5.57827Z" fill="#DD4124"/>
</svg>
