<svg width="20" height="22" viewBox="0 0 20 22" fill="none" xmlns="http://www.w3.org/2000/svg">
<path d="M18.7032 11.2854L13.0857 7.87291C12.9212 7.77238 12.7851 7.63135 12.6906 7.46329C12.596 7.29523 12.5462 7.10574 12.5457 6.91291V3.02416C12.4298 -0.307712 7.62088 -0.322986 7.50195 3.02421V6.90541C7.50105 7.09997 7.44981 7.29098 7.35321 7.45986C7.25661 7.62875 7.11795 7.76975 6.9507 7.86916L1.3032 11.2367C1.13546 11.3374 0.996576 11.4797 0.899999 11.6499C0.803421 11.82 0.752426 12.0123 0.751953 12.2079V13.4679C0.753062 13.6282 0.78805 13.7865 0.854621 13.9324C0.921192 14.0782 1.01784 14.2083 1.13823 14.3142C1.25863 14.4201 1.40004 14.4993 1.5532 14.5467C1.70636 14.5941 1.86781 14.6086 2.02695 14.5892L7.53195 13.8729V16.8017C7.53116 16.918 7.50371 17.0325 7.4517 17.1365C7.39969 17.2406 7.32451 17.3313 7.23195 17.4017L5.66445 18.5717C5.57039 18.6418 5.49396 18.7328 5.44123 18.8376C5.3885 18.9424 5.36093 19.0581 5.3607 19.1754V20.7429C5.36163 20.8652 5.39215 20.9854 5.44966 21.0933C5.50717 21.2012 5.58996 21.2935 5.69094 21.3624C5.79192 21.4313 5.9081 21.4748 6.02952 21.489C6.15095 21.5032 6.27402 21.4879 6.3882 21.4442L9.59445 20.1917C9.85579 20.0892 10.1459 20.0879 10.4082 20.1879L13.6782 21.4479C13.7922 21.4911 13.9149 21.5061 14.0359 21.4916C14.1569 21.4771 14.2726 21.4335 14.3732 21.3646C14.4737 21.2958 14.5562 21.2036 14.6134 21.096C14.6706 20.9884 14.701 20.8685 14.7019 20.7467V19.3104C14.7024 19.1961 14.6766 19.0833 14.6265 18.9805C14.5765 18.8778 14.5035 18.788 14.4132 18.7179L12.7557 17.4242C12.6657 17.3538 12.5929 17.2639 12.5429 17.1613C12.4929 17.0586 12.4669 16.9459 12.4669 16.8317V13.8542L17.9832 14.5067C18.1418 14.5245 18.3024 14.5087 18.4544 14.4603C18.6065 14.412 18.7468 14.3321 18.866 14.226C18.9852 14.1199 19.0807 13.9899 19.1463 13.8444C19.212 13.6989 19.2462 13.5413 19.2469 13.3817V12.2529C19.2471 12.0585 19.1971 11.8674 19.1019 11.6979C19.0066 11.5284 18.8693 11.3864 18.7032 11.2854Z" fill="#DD4124"/>
</svg>
