<svg width="24" height="24" viewBox="0 0 24 24" fill="none" xmlns="http://www.w3.org/2000/svg">
<path d="M20.7032 12.2854L15.0857 8.87291C14.9212 8.77238 14.7851 8.63135 14.6906 8.46329C14.596 8.29523 14.5462 8.10574 14.5457 7.91291V4.02416C14.4298 0.692288 9.62088 0.677014 9.50195 4.02421V7.90541C9.50105 8.09997 9.44981 8.29098 9.35321 8.45986C9.25661 8.62875 9.11795 8.76975 8.9507 8.86916L3.3032 12.2367C3.13546 12.3374 2.99658 12.4797 2.9 12.6499C2.80342 12.82 2.75243 13.0123 2.75195 13.2079V14.4679C2.75306 14.6282 2.78805 14.7865 2.85462 14.9324C2.92119 15.0782 3.01784 15.2083 3.13823 15.3142C3.25863 15.4201 3.40004 15.4993 3.5532 15.5467C3.70636 15.5941 3.86781 15.6085 4.02695 15.5892L9.53195 14.8729V17.8017C9.53116 17.918 9.50371 18.0325 9.4517 18.1365C9.39969 18.2406 9.32451 18.3313 9.23195 18.4017L7.66445 19.5717C7.57039 19.6418 7.49396 19.7328 7.44123 19.8376C7.3885 19.9424 7.36093 20.0581 7.3607 20.1754V21.7429C7.36163 21.8652 7.39215 21.9854 7.44966 22.0933C7.50717 22.2012 7.58996 22.2935 7.69094 22.3624C7.79192 22.4313 7.9081 22.4748 8.02952 22.489C8.15095 22.5032 8.27402 22.4879 8.3882 22.4442L11.5945 21.1917C11.8558 21.0892 12.1459 21.0879 12.4082 21.1879L15.6782 22.4479C15.7922 22.4911 15.9149 22.5061 16.0359 22.4916C16.1569 22.4771 16.2726 22.4335 16.3732 22.3646C16.4737 22.2958 16.5562 22.2036 16.6134 22.096C16.6706 21.9884 16.701 21.8685 16.7019 21.7467V20.3104C16.7024 20.1961 16.6766 20.0833 16.6265 19.9805C16.5765 19.8778 16.5035 19.788 16.4132 19.7179L14.7557 18.4242C14.6657 18.3538 14.5929 18.2639 14.5429 18.1613C14.4929 18.0586 14.4669 17.9459 14.4669 17.8317V14.8542L19.9832 15.5067C20.1418 15.5245 20.3024 15.5087 20.4544 15.4603C20.6065 15.412 20.7468 15.3321 20.866 15.226C20.9852 15.1199 21.0807 14.9899 21.1463 14.8444C21.212 14.6989 21.2462 14.5413 21.2469 14.3817V13.2529C21.2471 13.0585 21.1971 12.8674 21.1019 12.6979C21.0066 12.5284 20.8693 12.3864 20.7032 12.2854V12.2854Z" fill="white"/>
</svg>
