<svg width="26" height="28" viewBox="0 0 26 28" fill="none" xmlns="http://www.w3.org/2000/svg">
<path d="M5.83155 14.5H4.99968C4.91609 14.5 4.83385 14.479 4.76046 14.439C4.68708 14.399 4.6249 14.3412 4.57961 14.2709C4.53432 14.2007 4.50736 14.1202 4.5012 14.0368C4.49505 13.9535 4.50989 13.8699 4.54437 13.7937L6.55874 9.34844L3.53405 9.28125L2.43093 10.6178C2.22062 10.8822 2.0528 11 1.62468 11H1.06468C0.976014 11.0029 0.887967 10.9843 0.808001 10.9459C0.728034 10.9075 0.658505 10.8504 0.605304 10.7794C0.530929 10.6791 0.457804 10.5091 0.529054 10.2666L1.14843 8.04781C1.15312 8.03125 1.15874 8.01469 1.16499 7.99844C1.1653 7.99689 1.1653 7.9953 1.16499 7.99375C1.15854 7.97751 1.15301 7.96092 1.14843 7.94406L0.528429 5.71125C0.461241 5.47344 0.534679 5.30719 0.608429 5.20937C0.657953 5.14366 0.722204 5.09049 0.796018 5.05412C0.869831 5.01776 0.951148 4.99922 1.03343 5H1.62468C1.94437 5 2.25468 5.14344 2.43718 5.375L3.51749 6.68906L6.55874 6.64406L4.54499 2.20656C4.51046 2.13045 4.49557 2.0469 4.50166 1.96355C4.50775 1.8802 4.53464 1.7997 4.57987 1.72942C4.62509 1.65914 4.68721 1.60132 4.76055 1.56124C4.83389 1.52116 4.9161 1.50011 4.99968 1.5H5.84062C5.95794 1.50236 6.07322 1.53111 6.1779 1.58413C6.28259 1.63715 6.37398 1.71307 6.4453 1.80625L10.3531 6.55625L12.1584 6.50875C12.2906 6.50156 12.6569 6.49906 12.7416 6.49906C14.4684 6.5 15.4997 7.06063 15.4997 8C15.4997 8.29563 15.3816 8.84375 14.5912 9.1925C14.1247 9.39875 13.5022 9.50313 12.7409 9.50313C12.6572 9.50313 12.2919 9.50063 12.1578 9.49344L10.3528 9.44531L6.4353 14.1953C6.36392 14.2881 6.27261 14.3636 6.1681 14.4164C6.0636 14.4691 5.94859 14.4977 5.83155 14.5V14.5Z" fill="#DD4124"/>
<path d="M14.6665 20.6654C15.7732 20.6654 16.6665 19.772 16.6665 18.6654C16.6665 17.5587 15.7732 16.6654 14.6665 16.6654C13.5598 16.6654 12.6665 17.5587 12.6665 18.6654C12.6665 19.772 13.5598 20.6654 14.6665 20.6654ZM22.6665 16.6654H17.3332V21.332H11.9998V15.332H10.6665V25.332H11.9998V23.332H23.9998V25.332H25.3332V19.332C25.3332 17.8587 24.1398 16.6654 22.6665 16.6654Z" fill="#DD4124"/>
</svg>
