<svg width="24" height="24" viewBox="0 0 24 24" fill="none" xmlns="http://www.w3.org/2000/svg">
<path d="M4.5 22.6947H19.5C21.7725 22.6947 23.625 20.8422 23.625 18.5697V9.73468C23.625 7.4547 21.7725 5.60968 19.5 5.60968H18.3525V3.92969C18.3525 2.4822 17.175 1.30469 15.7275 1.30469H8.27252C6.82499 1.30469 5.64752 2.4822 5.64752 3.92969V5.60968H4.5C2.22748 5.60968 0.375 7.4547 0.375 9.73468V18.5697C0.375 20.8422 2.22748 22.6947 4.5 22.6947ZM19.9125 7.90468C20.745 8.09218 21.375 8.84218 21.375 9.73468V18.5697C21.375 19.4622 20.745 20.2122 19.9125 20.3997V7.90468ZM7.89752 3.92969C7.89752 3.71967 8.0625 3.55469 8.27252 3.55469H15.7275C15.9375 3.55469 16.1025 3.71967 16.1025 3.92969V5.60968H7.89752V3.92969ZM2.625 9.73468C2.625 8.84218 3.25502 8.09218 4.08751 7.90468V20.3997C3.25501 20.2122 2.625 19.4622 2.625 18.5697V9.73468Z" fill="#DD4124"/>
</svg>
