<svg width="40" height="40" viewBox="0 0 40 40" fill="none" xmlns="http://www.w3.org/2000/svg">
<g clip-path="url(#clip0_334_3171)">
<path d="M27.5371 17.1875C27.5371 16.3245 26.8376 15.625 25.9746 15.625H9.88086C9.01789 15.625 8.31836 16.3245 8.31836 17.1875C8.31836 18.0505 9.01789 18.75 9.88086 18.75H25.9746C26.8376 18.75 27.5371 18.0505 27.5371 17.1875Z" fill="#DD4124"/>
<path d="M9.88086 21.875C9.01789 21.875 8.31836 22.5745 8.31836 23.4375C8.31836 24.3005 9.01789 25 9.88086 25H19.6552C20.5181 25 21.2177 24.3005 21.2177 23.4375C21.2177 22.5745 20.5181 21.875 19.6552 21.875H9.88086Z" fill="#DD4124"/>
<path d="M13.5519 36.875H8.32617C6.60305 36.875 5.20117 35.4731 5.20117 33.75V6.25C5.20117 4.52688 6.60305 3.125 8.32617 3.125H27.5363C29.2594 3.125 30.6613 4.52688 30.6613 6.25V15.8594C30.6613 16.7223 31.3608 17.4219 32.2238 17.4219C33.0867 17.4219 33.7863 16.7223 33.7863 15.8594V6.25C33.7863 2.80375 30.9825 0 27.5363 0H8.32617C4.87992 0 2.07617 2.80375 2.07617 6.25V33.75C2.07617 37.1963 4.87992 40 8.32617 40H13.5519C14.4148 40 15.1144 39.3005 15.1144 38.4375C15.1144 37.5745 14.4148 36.875 13.5519 36.875Z" fill="#DD4124"/>
<path d="M36.5529 22.6209C34.7252 20.7933 31.7515 20.7932 29.925 22.6197L21.3466 31.1791C21.1644 31.3609 21.0301 31.5848 20.9552 31.831L19.087 37.9814C18.9214 38.5267 19.0657 39.1188 19.4637 39.5267C19.7618 39.8323 20.1668 39.9981 20.5822 39.9981C20.7212 39.9981 20.8615 39.9795 20.9992 39.9413L27.3059 38.1944C27.5654 38.1225 27.802 37.9848 27.9926 37.7944L36.553 29.2501C38.3806 27.4225 38.3806 24.4487 36.5529 22.6209ZM26.0757 35.2925L22.9029 36.1714L23.8314 33.1144L29.6196 27.3391L31.8298 29.5492L26.0757 35.2925ZM34.3444 27.0395L34.0416 27.3416L31.8319 25.1319L32.1336 24.8308C32.7428 24.2216 33.7341 24.2216 34.3433 24.8308C34.9525 25.44 34.9525 26.4312 34.3444 27.0395Z" fill="#DD4124"/>
<path d="M25.9746 9.375H9.88086C9.01789 9.375 8.31836 10.0745 8.31836 10.9375C8.31836 11.8005 9.01789 12.5 9.88086 12.5H25.9746C26.8376 12.5 27.5371 11.8005 27.5371 10.9375C27.5371 10.0745 26.8376 9.375 25.9746 9.375Z" fill="#DD4124"/>
</g>
<defs>
<clipPath id="clip0_334_3171">
<rect width="40" height="40" fill="white"/>
</clipPath>
</defs>
</svg>
