<svg width="16" height="16" viewBox="0 0 16 16" fill="none" xmlns="http://www.w3.org/2000/svg">
<g clip-path="url(#clip0_334_2830)">
<path d="M15.6112 7.05714L14.52 5.9661C14.261 5.70711 14.0488 5.19531 14.0488 4.82827V3.28527C14.0488 2.55127 13.4492 1.95165 12.7154 1.95126H11.1717C10.8051 1.95126 10.2927 1.73864 10.0337 1.47984L8.94267 0.388806C8.42426 -0.129602 7.57545 -0.129602 7.05704 0.388806L5.96601 1.48062C5.70678 1.73961 5.1938 1.95165 4.82798 1.95165H3.28498C2.55195 1.95165 1.95155 2.55127 1.95155 3.28527V4.82831C1.95155 5.1939 1.73936 5.70731 1.48033 5.96614L0.389099 7.05718C-0.1297 7.57559 -0.1297 8.42439 0.389099 8.94362L1.48033 10.0347C1.73952 10.2936 1.95155 10.8069 1.95155 11.1725V12.7155C1.95155 13.4487 2.55195 14.0492 3.28498 14.0492H4.82801C5.19462 14.0492 5.70702 14.2613 5.96604 14.5202L7.05708 15.6116C7.57549 16.1296 8.4243 16.1296 8.9427 15.6116L10.0337 14.5202C10.293 14.2612 10.8052 14.0492 11.1718 14.0492H12.7154C13.4492 14.0492 14.0488 13.4487 14.0488 12.7155V11.1725C14.0488 10.8053 14.2612 10.2935 14.52 10.0347L15.6113 8.94362C16.1293 8.42439 16.1293 7.57555 15.6112 7.05714ZM6.94145 11.0002L3.9996 8.05798L4.94243 7.11534L6.94169 9.1146L11.0572 5.00011L11.9998 5.94274L6.94145 11.0002Z" fill="#DD4124"/>
</g>
<defs>
<clipPath id="clip0_334_2830">
<rect width="16" height="16" fill="white"/>
</clipPath>
</defs>
</svg>
