<svg width="22" height="24" viewBox="0 0 22 24" fill="none" xmlns="http://www.w3.org/2000/svg">
<path d="M21.245 9.95883C21.1789 6.51352 20.6989 3.97242 20.7055 3.97008C20.5058 3.58055 20.1556 3.25477 19.7272 3.08836C16.9147 1.99758 14.1491 0.956484 11.4528 0.0682031C11.1772 -0.0227344 10.8866 -0.0227344 10.6114 0.0682031C7.91561 0.954141 5.15046 1.99336 2.33843 3.08273C1.96014 3.22945 1.6428 3.50086 1.43608 3.83086C1.45202 3.83273 0.858113 5.68664 0.756863 9.78117C0.696863 13.8762 1.20686 15.1029 1.18999 15.1043C1.46608 16.0043 1.98264 16.9198 2.7228 17.8507C3.55014 18.8904 4.66811 19.9643 6.01858 21.0199C8.25405 22.7745 10.3461 23.823 10.4337 23.8601C10.6236 23.9529 10.8247 24.0002 11.0319 23.9998C11.2395 23.9998 11.4406 23.9524 11.63 23.8591C11.7181 23.8221 13.8125 22.7702 16.047 21.0162C17.398 19.9596 18.5159 18.8857 19.3437 17.8465C20.1369 16.8495 20.6731 15.8712 20.9323 14.9102C20.922 14.9088 21.297 13.4051 21.245 9.9593V9.95883ZM12.1447 12.6462V14.8291C12.1447 15.4441 11.6464 15.9424 11.0314 15.9429C10.4164 15.9429 9.91764 15.4446 9.91764 14.8296V12.6771C9.11514 12.2782 8.56296 11.4504 8.56296 10.4937C8.56296 9.14742 9.65421 8.0557 11.0005 8.0557C12.3467 8.0557 13.438 9.14695 13.4384 10.4932C13.4384 11.426 12.9144 12.2365 12.1447 12.6462Z" fill="white"/>
</svg>
