<svg width="10" height="10" viewBox="0 0 10 10" fill="none" xmlns="http://www.w3.org/2000/svg">
<path fill-rule="evenodd" clip-rule="evenodd" d="M9.82069 4.51574L9.02401 3.57847C8.92308 3.4596 8.8619 3.31211 8.84906 3.1567C8.82719 2.84428 8.78032 2.3444 8.74908 1.93513C8.73534 1.7577 8.65843 1.59109 8.53231 1.46555C8.40619 1.34 8.23923 1.26385 8.06175 1.25092L6.84017 1.15094C6.68476 1.1381 6.53727 1.07692 6.4184 0.975988C6.19346 0.782285 5.79356 0.447992 5.48113 0.179308C5.34632 0.0636078 5.17453 0 4.99688 0C4.81922 0 4.64744 0.0636078 4.51262 0.179308L3.57535 0.975988C3.45648 1.07692 3.30899 1.1381 3.15358 1.15094L1.93825 1.25092C1.76027 1.26394 1.59291 1.34054 1.46672 1.46672C1.34054 1.59291 1.26394 1.76027 1.25092 1.93825C1.21655 2.35065 1.17594 2.87552 1.15094 3.15983C1.1381 3.31524 1.07692 3.46273 0.975988 3.5816C0.785409 3.80967 0.447992 4.20645 0.179308 4.51887C0.0636078 4.65368 0 4.82547 0 5.00312C0 5.18078 0.0636078 5.35257 0.179308 5.48738L0.975988 6.42465C1.07692 6.54352 1.1381 6.69101 1.15094 6.84642C1.17594 7.15885 1.21968 7.65872 1.25092 8.068C1.26537 8.24486 1.34259 8.41073 1.46864 8.53564C1.5947 8.66054 1.76126 8.73625 1.93825 8.74908L3.15983 8.84906C3.31524 8.8619 3.46273 8.92308 3.5816 9.02401L4.51887 9.82069C4.65368 9.93639 4.82547 10 5.00312 10C5.18078 10 5.35257 9.93639 5.48738 9.82069C5.7998 9.55201 6.19658 9.21772 6.42465 9.02401C6.54352 8.92308 6.69101 8.8619 6.84642 8.84906L8.06175 8.74908C8.23973 8.73606 8.40709 8.65946 8.53328 8.53328C8.65946 8.40709 8.73606 8.23973 8.74908 8.06175C8.78345 7.64935 8.82719 7.12448 8.84906 6.84017C8.8619 6.68476 8.92308 6.53727 9.02401 6.4184C9.21772 6.19346 9.55201 5.79356 9.82069 5.48113C9.93556 5.34654 9.99866 5.17539 9.99866 4.99844C9.99866 4.82149 9.93556 4.65034 9.82069 4.51574Z" fill="#DD4124"/>
</svg>
