<svg width="9" height="9" viewBox="0 0 9 9" fill="none" xmlns="http://www.w3.org/2000/svg">
<path d="M0.390632 3.16503L0.290633 3.16545C0.290917 3.2338 0.304763 3.30143 0.33137 3.3644C0.357948 3.4273 0.396733 3.48431 0.44548 3.53213C0.445531 3.53218 0.445582 3.53223 0.445633 3.53228L2.55354 5.6152L2.62397 5.5442L2.55368 5.61533L2.55366 5.61531C2.64988 5.71069 2.77972 5.76446 2.91521 5.76503L2.91605 5.76503C2.98441 5.76475 3.05203 5.7509 3.115 5.72429C3.17787 5.69773 3.23485 5.65897 3.28266 5.61026C3.37872 5.51348 3.43263 5.38265 3.43263 5.24628C3.43263 5.10978 3.37862 4.97883 3.28239 4.88203L3.28175 4.88139L2.06746 3.6817H6.0448C6.51556 3.6817 6.96704 3.86871 7.29991 4.20158C7.63279 4.53446 7.8198 4.98594 7.8198 5.4567C7.8198 5.92746 7.63279 6.37893 7.29991 6.71181C6.96704 7.04469 6.51556 7.2317 6.0448 7.2317H4.99897C4.86194 7.2317 4.73052 7.28613 4.63363 7.38303C4.53673 7.47992 4.4823 7.61134 4.4823 7.74836C4.4823 7.88539 4.53673 8.01681 4.63363 8.1137C4.73052 8.2106 4.86194 8.26503 4.99897 8.26503H6.0448C6.78961 8.26503 7.50393 7.96915 8.03059 7.44249C8.55725 6.91582 8.85313 6.20151 8.85313 5.4567C8.85313 4.71188 8.55725 3.99757 8.03059 3.47091C7.50393 2.94424 6.78961 2.64836 6.0448 2.64836H2.0633L3.27758 1.44867L3.27778 1.44887L3.28277 1.44314C3.36816 1.34491 3.41333 1.21807 3.40925 1.08797C3.40517 0.957877 3.35214 0.834115 3.26076 0.741429C3.16938 0.648742 3.04638 0.593961 2.91636 0.588036C2.78634 0.582111 2.65887 0.625479 2.55944 0.709471L2.55924 0.709244L2.55375 0.714663L0.441248 2.798L0.441244 2.79799L0.440467 2.79878C0.392581 2.84705 0.354697 2.90431 0.328985 2.96726C0.303274 3.03021 0.290241 3.09761 0.290634 3.16561L0.390632 3.16503ZM0.390632 3.16503C0.390315 3.11019 0.400825 3.05584 0.421561 3.00507C0.442296 2.9543 0.472848 2.90813 0.511465 2.8692L0.515632 3.46086C0.476262 3.42227 0.444941 3.37626 0.423484 3.32547C0.402027 3.27469 0.390861 3.22016 0.390632 3.16503Z" fill="#DD4124" stroke="#DD4124" stroke-width="0.2"/>
</svg>
