<svg width="24" height="24" viewBox="0 0 24 24" fill="none" xmlns="http://www.w3.org/2000/svg">
<path d="M15.5998 13.2016C15.5998 13.8613 15.0596 14.4016 14.3998 14.4016H11.9998C11.34 14.4016 10.7998 13.8613 10.7998 13.2016V10.8016C10.7998 10.1418 11.34 9.60156 11.9998 9.60156C12.6596 9.60156 13.1998 10.1418 13.1998 10.8016V12.0016H14.3998C15.0596 12.0016 15.5998 12.5418 15.5998 13.2016Z" fill="white"/>
<path d="M15.5998 13.2016C15.5998 13.8613 15.0596 14.4016 14.3998 14.4016H11.9998C11.34 14.4016 10.7998 13.8613 10.7998 13.2016V10.8016C10.7998 10.1418 11.34 9.60156 11.9998 9.60156C12.6596 9.60156 13.1998 10.1418 13.1998 10.8016V12.0016H14.3998C15.0596 12.0016 15.5998 12.5418 15.5998 13.2016Z" fill="white"/>
<path d="M15.5998 13.2016C15.5998 13.8613 15.0596 14.4016 14.3998 14.4016H11.9998C11.34 14.4016 10.7998 13.8613 10.7998 13.2016V10.8016C10.7998 10.1418 11.34 9.60156 11.9998 9.60156C12.6596 9.60156 13.1998 10.1418 13.1998 10.8016V12.0016H14.3998C15.0596 12.0016 15.5998 12.5418 15.5998 13.2016Z" fill="white"/>
<path d="M20.4 2.4H19.2V1.2C19.2 0.540234 18.6598 0 18 0C17.3402 0 16.8 0.540234 16.8 1.2V2.4H7.2V1.2C7.2 0.540234 6.65977 0 6 0C5.34023 0 4.8 0.540234 4.8 1.2V2.4H3.6C1.62012 2.4 0 4.01953 0 6V20.4C0 22.3805 1.62012 24 3.6 24H20.4C22.3799 24 24 22.3805 24 20.4V6C24 4.01953 22.3799 2.4 20.4 2.4ZM12 19.2C8.68477 19.2 6 16.5152 6 13.2C6 9.88477 8.68477 7.2 12 7.2C15.3152 7.2 18 9.88477 18 13.2C18 16.5152 15.3152 19.2 12 19.2ZM15.6 13.2C15.6 13.8598 15.0598 14.4 14.4 14.4H12C11.3402 14.4 10.8 13.8598 10.8 13.2V10.8C10.8 10.1402 11.3402 9.6 12 9.6C12.6598 9.6 13.2 10.1402 13.2 10.8V12H14.4C15.0598 12 15.6 12.5402 15.6 13.2Z" fill="white"/>
</svg>
