<svg width="32" height="32" viewBox="0 0 32 32" fill="none" xmlns="http://www.w3.org/2000/svg">
<path d="M28.768 8.06556C27.808 8.48156 26.816 8.76956 25.76 8.89756C26.848 8.25756 27.68 7.23356 28.064 5.98556C27.04 6.59356 25.92 7.00956 24.736 7.26556C23.776 6.24156 22.4 5.60156 20.896 5.60156C17.984 5.60156 15.648 7.96956 15.648 10.8496C15.648 11.2656 15.68 11.6496 15.776 12.0336C11.424 11.8416 7.58397 9.72956 4.99197 6.56156C3.13597 9.88956 5.21597 12.6416 6.59197 13.5696C5.75997 13.5696 4.92797 13.3136 4.22397 12.9296C4.22397 15.5216 6.04797 17.6656 8.41597 18.1456C7.90397 18.3056 6.75197 18.4016 6.04797 18.2416C6.71997 20.3216 8.67197 21.8576 10.944 21.8896C9.15197 23.2976 6.52797 24.4176 3.16797 24.0656C5.50397 25.5696 8.25597 26.4336 11.232 26.4336C20.896 26.4336 26.144 18.4336 26.144 11.5216C26.144 11.2976 26.144 11.0736 26.112 10.8496C27.2 10.0496 28.096 9.12156 28.768 8.06556Z" fill="#4AA1F0"/>
</svg>
