<svg width="14" height="15" viewBox="0 0 14 15" fill="none" xmlns="http://www.w3.org/2000/svg">
<g clip-path="url(#clip0_437_6256)">
<path d="M8.54104 5.84905C8.3752 5.67031 8.19132 5.51187 7.99281 5.37663C7.46703 5.01591 6.85579 4.82422 6.23145 4.82422C5.36489 4.8225 4.53355 5.19139 3.92187 5.84905L0.9544 9.03096C0.343759 9.68648 0.000547453 10.5746 6.76205e-07 11.5008C-0.00114755 13.4334 1.46017 15.0011 3.26398 15.0024C4.1292 15.0056 4.95979 14.6385 5.57125 13.9826L8.02081 11.358C8.06531 11.3108 8.09016 11.2463 8.08981 11.1791C8.08907 11.0411 7.98401 10.9298 7.85516 10.9306H7.76185C7.25007 10.9325 6.74285 10.8272 6.2688 10.6207C6.18145 10.5822 6.08106 10.6039 6.01452 10.6757L4.25316 12.5653C3.70622 13.1513 2.81946 13.1513 2.27251 12.5653C1.72557 11.9793 1.72557 11.0292 2.27251 10.4432L5.25166 7.25379C5.79816 6.66898 6.68347 6.66898 7.22998 7.25379C7.59828 7.62517 8.17278 7.62517 8.54106 7.25379C8.69952 7.08386 8.79559 6.8585 8.81169 6.61889C8.82872 6.33257 8.73017 6.05216 8.54104 5.84905Z" fill="#DD4124"/>
<path d="M13.0412 1.02499C11.7657 -0.341665 9.6976 -0.341665 8.42205 1.02499L5.97482 3.64452C5.90762 3.71687 5.88824 3.82569 5.92583 3.91948C5.96298 4.01353 6.04981 4.0739 6.14511 4.07194H6.23142C6.7426 4.07094 7.249 4.17707 7.72215 4.38439C7.8095 4.42291 7.90989 4.40118 7.97643 4.32941L9.73311 2.44974C10.2801 1.86373 11.1668 1.86373 11.7138 2.44974C12.2607 3.03575 12.2607 3.98585 11.7138 4.57186L9.52548 6.91393L9.5068 6.93643L8.74162 7.75129C8.19512 8.3361 7.3098 8.3361 6.7633 7.75129C6.39499 7.3799 5.82049 7.3799 5.45221 7.75129C5.29275 7.9225 5.19659 8.14983 5.18159 8.39117C5.16453 8.67749 5.26308 8.9579 5.45221 9.16104C5.72224 9.45158 6.03816 9.68852 6.38537 9.8609C6.43436 9.88589 6.48335 9.9059 6.53234 9.92839C6.58133 9.95089 6.63265 9.96837 6.68164 9.98838C6.73063 10.0084 6.78194 10.0259 6.83094 10.0409L6.96859 10.0809C7.06189 10.1058 7.15523 10.1258 7.25086 10.1433C7.36607 10.1617 7.48209 10.1734 7.59847 10.1783H7.76177H7.77576L7.91574 10.1608C7.96705 10.1584 8.02072 10.1459 8.08139 10.1459H8.16069L8.32167 10.1209L8.39633 10.1059L8.53163 10.0759H8.5573C9.13035 9.92165 9.65361 9.60375 10.0713 9.15603L13.0411 5.97411C14.3168 4.60745 14.3168 2.39165 13.0412 1.02499Z" fill="#DD4124"/>
</g>
<defs>
<clipPath id="clip0_437_6256">
<rect width="14" height="15" fill="white"/>
</clipPath>
</defs>
</svg>
