<svg width="16" height="16" viewBox="0 0 16 16" fill="none" xmlns="http://www.w3.org/2000/svg">
<g clip-path="url(#clip0_437_6268)">
<path d="M2.31125 0.8125C1.21133 0.8125 0.492188 1.53476 0.492188 2.48407C0.492188 3.41241 1.18991 4.15527 2.26904 4.15527H2.28991C3.41134 4.15527 4.10925 3.41241 4.10925 2.48407C4.08828 1.53476 3.41134 0.8125 2.31125 0.8125Z" fill="#DD4124"/>
<path d="M0.679688 5.47656H3.89521V15.1506H0.679688V5.47656Z" fill="#DD4124"/>
<path d="M11.7931 5.25C10.0585 5.25 8.8953 6.88001 8.8953 6.88001V5.47705H5.67969V15.1511H8.89512V9.74873C8.89512 9.45951 8.91608 9.17075 9.00105 8.96394C9.2335 8.38642 9.76249 7.78812 10.6508 7.78812C11.8144 7.78812 12.2797 8.67527 12.2797 9.97578V15.1511H15.495V9.60417C15.495 6.63272 13.9086 5.25 11.7931 5.25Z" fill="#DD4124"/>
</g>
<defs>
<clipPath id="clip0_437_6268">
<rect width="16" height="16" fill="white"/>
</clipPath>
</defs>
</svg>
