<svg width="143" height="40" viewBox="0 0 143 40" fill="none" xmlns="http://www.w3.org/2000/svg">
  <g clip-path="url(#clip0_13_853)">
    <path
      d="M0.0297852 8.47537V30.7368H5.2744V14.3604H9.49568V9.62684L5.78607 9.6139C5.78607 9.6139 5.57288 5.31948 9.49568 5.31948V0.03125C1.73506 0.03125 0.0297852 6.00184 0.0297852 8.47537Z"
      fill="#0C1C3E" />
    <path d="M17.2876 0.03125H12.0859V30.7368H17.2876V0.03125Z" fill="#0C1C3E" />
    <path d="M25.2279 2.23828H20.0259V7.27063H25.2279V2.23828Z" fill="#0C1C3E" />
    <path d="M25.2279 9.44531H20.0259V30.5553H25.2279V9.44531Z" fill="#0C1C3E" />
    <path
      d="M60.5787 9.67478V9.66919C60.5437 9.66919 60.5108 9.67213 60.4761 9.67243C60.424 9.67213 60.3755 9.66919 60.3229 9.66919V9.67743C58.727 9.71949 57.3696 10.1424 56.2295 10.7695V0.03125H51.0278V30.7368H51.1131H56.2298V18.881C56.2298 15.3839 59.728 15.4133 60.4432 15.3874C61.0742 15.4133 64.1607 15.7018 64.1607 18.881V30.7368H69.2774V16.4074C69.2771 16.4077 69.2948 9.67478 60.5787 9.67478Z"
      fill="#0C1C3E" />
    <path
      d="M78.6602 14.3252H83.1355V9.63428H78.6602V4.13281H73.5414V9.63428H70.9404V14.3252H73.5414V23.2681V24.7505C73.5414 24.7505 73.0298 30.8796 82.151 30.8796V25.6816C82.151 25.6816 78.6602 26.089 78.6602 23.4316V23.2681V14.3252Z"
      fill="#0C1C3E" />
    <path
      d="M85.4805 8.47537V30.7368H90.7251V14.3604H94.9461V9.62684H91.2365C91.2365 9.62684 91.023 5.31948 94.9461 5.31948V0.03125C87.1854 0.03125 85.4805 6.00184 85.4805 8.47537Z"
      fill="#0C1C3E" />
    <path
      d="M105.457 9.59766C99.6685 9.59766 94.9756 14.2912 94.9756 20.0806C94.9756 25.8703 99.6685 30.5638 105.457 30.5638C111.245 30.5638 115.938 25.8703 115.938 20.0806C115.938 14.2912 111.245 9.59766 105.457 9.59766ZM105.457 25.5124C102.457 25.5124 100.026 23.0803 100.026 20.0803C100.026 17.0806 102.457 14.6485 105.457 14.6485C108.456 14.6485 110.887 17.0806 110.887 20.0803C110.887 23.0803 108.456 25.5124 105.457 25.5124Z"
      fill="#0C1C3E" />
    <path
      d="M127.353 20.064L124.197 15.4131L120.274 9.63281H113.792L121.04 20.064L113.793 30.7431H119.933L124.197 24.6069L128.461 30.7431H134.601L127.353 20.064Z"
      fill="#0C1C3E" />
    <path
      d="M141.363 4.65234C141.363 4.65234 141.735 7.22911 139.154 8.08205C137.278 8.70176 134.941 8.38234 134.941 8.38234L134.941 8.3897C122.466 6.62205 128 19.4685 128 19.4685C128 19.4685 127.604 16.8359 130.207 16.0388C132.171 15.4376 134.422 15.7382 134.422 15.7382L134.423 15.7306C146.895 17.4988 141.363 4.65234 141.363 4.65234Z"
      fill="#DD4124" />
    <path
      d="M44.3824 11.8145C44.3824 11.8145 43.8467 11.5108 42.9498 11.0337C41.4724 10.1881 39.7706 9.73828 37.9663 9.73828C31.698 9.73828 27.9287 14.2709 27.9287 20.2862C27.9287 26.3015 31.698 30.6645 37.9663 30.6645C41.0713 30.6645 42.5828 29.2292 42.5828 29.2292V30.1562C42.5828 33.9268 39.7021 34.5618 37.1191 34.5618C35.9511 34.5618 34.8898 34.4762 33.8441 34.2848V39.7277C34.9739 39.905 36.1207 39.9842 37.2461 39.9842C44.4036 39.9842 48.0038 36.3833 48.0038 29.3095V21.9106V19.3548V10.2883H44.3824V11.8145ZM37.6954 25.6471C34.7674 25.6471 32.3941 23.2733 32.3941 20.3448C32.3941 17.4168 34.7674 15.0427 37.6954 15.0427C40.6234 15.0427 42.9962 17.4171 42.9962 20.3448C42.9962 23.2733 40.6231 25.6471 37.6954 25.6471Z"
      fill="#0C1C3E" />
  </g>
  <defs>
    <clipPath id="clip0_13_853">
      <rect width="142.621" height="40" fill="white" />
    </clipPath>
  </defs>
</svg>