<svg width="20" height="20" viewBox="0 0 20 20" fill="none" xmlns="http://www.w3.org/2000/svg">
<path d="M15.875 7.9762C16.2875 6.93872 16.9375 5.91371 17.8062 4.9262C18.0812 4.6137 18.1187 4.16372 17.8938 3.81371C17.7187 3.53872 17.4313 3.38872 17.1188 3.38872C17.0312 3.38872 16.9437 3.39494 16.8562 3.42622C15.0188 3.96371 10.725 5.86995 10.6062 11.9825C10.5625 14.3387 12.2875 16.3637 14.5312 16.5949C15.775 16.7199 17.0125 16.3137 17.9313 15.4887C18.85 14.6575 19.375 13.4699 19.375 12.2325C19.375 10.17 17.9125 8.3637 15.875 7.9762Z" fill="white"/>
<path d="M4.557 16.5949C5.79453 16.7199 7.03201 16.3137 7.95074 15.4887C8.86951 14.6575 9.39453 13.4699 9.39453 12.2325C9.39453 10.17 7.93201 8.3637 5.89451 7.9762C6.30703 6.93872 6.95701 5.91371 7.82578 4.9262C8.10078 4.6137 8.13828 4.16372 7.91324 3.81372C7.73826 3.53872 7.45075 3.38873 7.13825 3.38873C7.05078 3.38873 6.96327 3.39494 6.87576 3.42623C5.03826 3.96372 0.744513 5.86996 0.625763 11.9825V12.0699C0.625763 14.3887 2.332 16.3637 4.557 16.5949Z" fill="white"/>
</svg>
