<svg width="15" height="12" viewBox="0 0 15 12" fill="none" xmlns="http://www.w3.org/2000/svg">
<path d="M15 1.41936C14.4375 1.65899 13.8562 1.82488 13.2375 1.89862C13.875 1.52995 14.3625 0.940092 14.5875 0.221198C13.9875 0.571429 13.3313 0.81106 12.6375 0.958526C12.075 0.368664 11.2688 0 10.3875 0C8.68125 0 7.3125 1.36406 7.3125 3.02304C7.3125 3.26267 7.33125 3.48387 7.3875 3.70507C4.8375 3.59447 2.5875 2.37788 1.06875 0.552995C-0.0187499 2.47005 1.2 4.0553 2.00625 4.58986C1.51875 4.58986 1.03125 4.4424 0.61875 4.2212C0.61875 5.71429 1.6875 6.94931 3.075 7.22581C2.775 7.31797 2.1 7.37327 1.6875 7.28111C2.08125 8.47926 3.225 9.36406 4.55625 9.38249C3.50625 10.1935 1.96875 10.8387 0 10.6359C1.36875 11.5023 2.98125 12 4.725 12C10.3875 12 13.4625 7.39171 13.4625 3.41014C13.4625 3.28111 13.4625 3.15207 13.4437 3.02304C14.0812 2.56221 14.6062 2.02765 15 1.41936Z" fill="#DD4124"/>
</svg>
