<svg width="28" height="28" viewBox="0 0 28 28" fill="none" xmlns="http://www.w3.org/2000/svg">
<g clip-path="url(#clip0_439_29595)">
<path d="M28 3.37385C28 2.46439 27.6483 1.61317 27.0088 0.973653C25.732 -0.305385 23.4875 -0.302049 22.2095 0.973653L16.6162 6.56587L3.05292 4.4244C2.87595 4.39416 2.69674 4.45349 2.5691 4.58119L0.965269 6.18502C0.833088 6.3172 0.774846 6.50647 0.812963 6.69017C0.849932 6.87387 0.975386 7.02727 1.14787 7.09896L11.7286 11.4547L6.97754 16.2057C6.90136 16.2808 6.83196 16.3603 6.76584 16.442H2.16364C2.01467 16.442 1.87243 16.5014 1.76716 16.6056L0.163327 18.2094C0.0233258 18.3495 -0.0315261 18.5522 0.0177476 18.7437C0.0670214 18.9352 0.211507 19.0864 0.40193 19.1424L6.92373 21.061L8.84119 27.5817C8.89604 27.771 9.04725 27.9177 9.23877 27.9659C9.28471 27.9782 9.33174 27.9838 9.37762 27.9838C9.52435 27.9838 9.66769 27.9256 9.77411 27.8191L11.3768 26.2164C11.4821 26.1111 11.5415 25.9689 11.5415 25.8199V21.2178C11.6233 21.1518 11.7028 21.0812 11.779 21.005L16.5289 16.2551L20.8847 26.8346C20.9563 27.0082 21.1097 27.1337 21.2934 27.1706C21.4771 27.2065 21.6675 27.1505 21.7986 27.0172L23.4024 25.4145C23.529 25.2868 23.5872 25.1076 23.5592 24.9306L21.4167 11.3663L27.0089 5.77404C27.6483 5.13561 28 4.28331 28 3.37385Z" fill="#DD4124"/>
</g>
<defs>
<clipPath id="clip0_439_29595">
<rect width="28" height="28" fill="white"/>
</clipPath>
</defs>
</svg>
